<svg xmlns="http://www.w3.org/2000/svg" xmlns:xlink="http://www.w3.org/1999/xlink" width="1550.751" height="1006.902" viewBox="0 0 1550.751 1006.902"><defs><clipPath id="a"><rect width="559.898" height="875.982" transform="translate(0 -1)"/></clipPath></defs><g transform="translate(0 -7901.549)"><path d="M0,0H1113.177V736.468H0Z" transform="translate(1113.177 8796.041) rotate(180)" fill="#f0f0f1"/><g transform="translate(1168.17 7902.231) rotate(47)" clip-path="url(#a)"><g transform="translate(32.418 457.713) rotate(-53)" opacity="0.52"><path d="M419.728,115.977C443.321,41.732,469.32,0,469.32,0S-160.705,63.1,39.176,430.145C324.02,558.859,367.387,280.625,419.728,115.977Z" transform="translate(12.038 0)" fill="#90e224"/><path d="M451.223,0s-34.642,24.762-83.794,65.368c-49.207,40.468-112.789,97.1-170.543,159.028a1083.926,1083.926,0,0,0-79.535,95.063c-5.895,7.928-11.57,15.775-16.805,23.662-5.441,7.75-10.471,15.514-15.17,23.168-4.905,7.558-9.289,15.1-13.4,22.467-4.3,7.269-8.053,14.483-11.5,21.464-3.627,6.9-6.843,13.6-9.55,20.132-2.831,6.458-5.7,12.546-7.7,18.468q-3.195,8.8-5.978,16.462-2.246,7.75-4.108,14.181c-2.8,8.506-3.463,15.432-4.645,20.021-.962,4.631-1.47,7.1-1.47,7.1L0,501.641s.673-2.721,1.91-7.805c1.484-5,2.639-12.724,6.005-21.807,1.525-4.6,3.243-9.688,5.1-15.225,2.2-5.373,4.575-11.185,7.117-17.4,2.405-6.266,5.689-12.56,8.959-19.279,3.161-6.8,6.816-13.727,10.911-20.791,3.917-7.173,8.135-14.538,12.9-21.89,4.576-7.489,9.44-15.115,14.813-22.7,5.167-7.723,10.663-15.487,16.572-23.223,5.7-7.888,11.831-15.665,18.166-23.525a1104.855,1104.855,0,0,1,84.564-93.166C247.825,154.686,313.865,100.559,364.763,62,415.62,23.346,451.223,0,451.223,0Z" transform="translate(0 21.711)" fill="#4b8b00"/></g><g transform="translate(-14.624 624.096) rotate(-71)"><path d="M419.728,115.977C443.321,41.732,469.32,0,469.32,0S-160.705,63.1,39.176,430.144C324.02,558.859,367.387,280.625,419.728,115.977Z" transform="translate(12.038 0)" fill="#ccf19b"/><path d="M451.223,0s-34.642,24.762-83.794,65.368c-49.207,40.468-112.789,97.1-170.543,159.028a1083.913,1083.913,0,0,0-79.535,95.063c-5.895,7.928-11.57,15.774-16.805,23.662-5.441,7.75-10.471,15.514-15.17,23.168-4.905,7.558-9.289,15.1-13.4,22.467-4.3,7.269-8.053,14.483-11.5,21.464-3.627,6.9-6.843,13.6-9.55,20.132-2.831,6.458-5.7,12.546-7.7,18.468q-3.195,8.8-5.978,16.462-2.246,7.75-4.108,14.181c-2.8,8.506-3.463,15.432-4.645,20.021-.962,4.631-.738,14.518-.738,14.518L0,501.64s.673-2.721,1.91-7.805c1.484-5,2.639-12.724,6.005-21.807,1.525-4.6,3.243-9.688,5.1-15.225,2.2-5.373,4.575-11.185,7.117-17.4,2.405-6.266,5.689-12.56,8.959-19.279,3.161-6.8,6.816-13.727,10.911-20.791,3.917-7.173,8.135-14.538,12.9-21.89,4.576-7.489,9.44-15.115,14.813-22.7,5.167-7.723,10.663-15.487,16.572-23.223,5.7-7.888,11.831-15.665,18.166-23.525a1104.815,1104.815,0,0,1,84.564-93.166C247.825,154.686,313.866,100.559,364.763,62,415.62,23.346,451.223,0,451.223,0Z" transform="translate(0 21.711)" fill="#4b8b00"/></g></g></g></svg>