<svg xmlns="http://www.w3.org/2000/svg" width="295" height="247" viewBox="0 0 295 247"><g transform="translate(-248 -3923)"><g transform="translate(4277 2819) rotate(90)"><g transform="translate(1138 3766)" fill="none" stroke="#90e224" stroke-width="2"><rect width="190" height="231" rx="10" stroke="none"/><rect x="1" y="1" width="188" height="229" rx="9" fill="none"/></g><rect width="190" height="231" rx="59" transform="translate(1161 3734)" fill="#90e224"/></g><g transform="translate(-106 437)"><circle cx="49.5" cy="49.5" r="49.5" transform="translate(354 3486)" fill="#fff"/></g><g transform="translate(369.121 4040.595)"><path d="M96.711,52.306a2.532,2.532,0,0,0-2.232-1.337,17.717,17.717,0,0,0-15.937,10.1,12.571,12.571,0,0,1-5.963-1.911l6.583-6.583a2.532,2.532,0,0,0,0-3.58,12.661,12.661,0,0,0-12.531-3.191v-5.3H79.289a2.532,2.532,0,0,0,2.532-2.532A17.747,17.747,0,0,0,66.4,20.4a12.606,12.606,0,0,0-2.31-5.213H64.1A7.595,7.595,0,0,0,64.1,0H33.721a7.595,7.595,0,1,0,0,15.189h.006a12.606,12.606,0,0,0-2.31,5.213A17.747,17.747,0,0,0,16,37.974a2.532,2.532,0,0,0,2.532,2.532H31.189v7.932a27.676,27.676,0,0,0,3.855,14.121l-.148.148a12.672,12.672,0,0,0,0,17.9,2.532,2.532,0,0,0,3.58,0l7.553-7.553a27.675,27.675,0,0,0,13.007,3.231H78.531A17.718,17.718,0,0,0,94.479,86.411a2.531,2.531,0,0,0,2.106-3.936,24.786,24.786,0,0,1,0-27.57,2.533,2.533,0,0,0,.126-2.6ZM73.481,51.1,68.91,55.671a12.593,12.593,0,0,1-1.992-4.563,7.661,7.661,0,0,1,6.563-.008ZM76.5,35.442H66.631V25.573A12.7,12.7,0,0,1,76.5,35.442Zm-55.186,0a12.7,12.7,0,0,1,9.872-9.869v9.869ZM36.994,74.929a7.613,7.613,0,0,1,1.069-8.195,28.085,28.085,0,0,0,3.643,3.483Zm52.738,5.476a12.725,12.725,0,0,1-7.127-7.5,2.532,2.532,0,0,0-2.385-1.684H59.037A22.81,22.81,0,0,1,36.253,48.438V22.784a7.6,7.6,0,0,1,7.595-7.595,2.532,2.532,0,1,0,0-5.063H33.721a2.532,2.532,0,1,1,0-5.063H64.1a2.532,2.532,0,0,1,0,5.063H53.974a2.532,2.532,0,1,0,0,5.063,7.6,7.6,0,0,1,7.595,7.595V48.437A17.744,17.744,0,0,0,79.289,66.158h.93A2.532,2.532,0,0,0,82.6,64.475a12.725,12.725,0,0,1,7.127-7.5,29.8,29.8,0,0,0,0,23.431Z" fill="#fff"/><path d="M178.658,120H168.532a2.532,2.532,0,0,0,0,5.063h10.126a2.532,2.532,0,1,0,0-5.063Z" transform="translate(-124.684 -99.747)" fill="#fff"/></g></g></svg>