<svg xmlns="http://www.w3.org/2000/svg" xmlns:xlink="http://www.w3.org/1999/xlink" width="888" height="420" viewBox="0 0 888 420"><defs><filter id="a" x="0" y="64" width="482" height="240" filterUnits="userSpaceOnUse"><feOffset dy="30" input="SourceAlpha"/><feGaussianBlur stdDeviation="25" result="b"/><feFlood flood-opacity="0.102"/><feComposite operator="in" in2="b"/><feComposite in="SourceGraphic"/></filter><filter id="c" x="270" y="180" width="482" height="240" filterUnits="userSpaceOnUse"><feOffset dy="30" input="SourceAlpha"/><feGaussianBlur stdDeviation="25" result="d"/><feFlood flood-opacity="0.102"/><feComposite operator="in" in2="d"/><feComposite in="SourceGraphic"/></filter><filter id="e" x="406" y="0" width="482" height="240" filterUnits="userSpaceOnUse"><feOffset dy="30" input="SourceAlpha"/><feGaussianBlur stdDeviation="25" result="f"/><feFlood flood-opacity="0.102"/><feComposite operator="in" in2="f"/><feComposite in="SourceGraphic"/></filter></defs><g transform="translate(-826 -4661)"><g transform="translate(-192 -1135)" opacity="0.5"><g transform="matrix(1, 0, 0, 1, 1018, 5796)" filter="url(#a)"><rect width="332" height="90" rx="45" transform="translate(75 109)" fill="#fff" opacity="0.8"/></g><text transform="translate(1141 5957)" fill="#2a442e" font-size="22" font-family="Helvetica" opacity="0.6"><tspan x="0" y="0">Agricultural Commodity</tspan></text></g><g transform="translate(78 -1019)" opacity="0.3"><g transform="matrix(1, 0, 0, 1, 748, 5680)" filter="url(#c)"><rect width="332" height="90" rx="45" transform="translate(345 225)" fill="#fff" opacity="0.8"/></g><text transform="translate(1208 5957)" fill="#2a442e" font-size="22" font-family="Helvetica" opacity="0.6"><tspan x="0" y="0">Cultivation</tspan></text></g><g transform="translate(214 -1199)" opacity="0.68"><g transform="matrix(1, 0, 0, 1, 612, 5860)" filter="url(#e)"><rect width="332" height="90" rx="45" transform="translate(481 45)" fill="#fff" opacity="0.8"/></g><text transform="translate(1188 5957)" fill="#2a442e" font-size="22" font-family="Helvetica" opacity="0.6"><tspan x="0" y="0">Merchandising</tspan></text></g></g></svg>