<svg xmlns="http://www.w3.org/2000/svg" width="378.404" height="374.327" viewBox="0 0 378.404 374.327"><g transform="translate(42.102 425.21) rotate(-103)"><g transform="translate(392.572 205.411) rotate(135)" opacity="0.56"><path d="M230.8,63.772C243.769,22.947,258.065,0,258.065,0S-88.367,34.7,21.541,236.524C178.169,307.3,202.015,154.307,230.8,63.772Z" transform="translate(6.619 0)" fill="#64b900"/><path d="M248.115,0s-19.048,13.616-46.076,35.944c-27.058,22.252-62.019,53.39-93.777,87.445a596.011,596.011,0,0,0-43.734,52.272c-3.241,4.36-6.362,8.674-9.241,13.011-2.992,4.262-5.758,8.531-8.342,12.74-2.7,4.156-5.108,8.3-7.367,12.354-2.365,4-4.428,7.964-6.325,11.8-1.994,3.793-3.763,7.481-5.251,11.07-1.557,3.551-3.136,6.9-4.231,10.155q-1.757,4.84-3.287,9.052-1.235,4.262-2.259,7.8c-1.541,4.677-1.9,8.485-2.554,11.009-.529,2.546-.808,3.906-.808,3.906L0,275.837s.37-1.5,1.05-4.292c.816-2.75,1.451-7,3.3-11.991.839-2.531,1.783-5.327,2.8-8.372,1.209-2.954,2.516-6.15,3.914-9.566,1.322-3.446,3.128-6.906,4.926-10.6,1.738-3.74,3.748-7.548,6-11.432,2.154-3.944,4.473-7.994,7.1-12.037,2.516-4.118,5.191-8.311,8.145-12.482,2.841-4.247,5.863-8.516,9.112-12.77,3.136-4.337,6.506-8.614,9.989-12.936a607.507,607.507,0,0,1,46.5-51.229c33.435-33.072,69.749-62.835,97.736-84.037C228.537,12.838,248.115,0,248.115,0Z" transform="translate(0 11.938)" fill="#4b8b00"/></g></g></svg>