<svg xmlns="http://www.w3.org/2000/svg" width="485.942" height="480.707" viewBox="0 0 485.942 480.707"><g transform="translate(54.067 546.049) rotate(-103)"><g transform="translate(504.136 263.787) rotate(135)" opacity="0.56"><path d="M296.385,81.9C313.046,29.469,331.4,0,331.4,0S-113.48,44.558,27.663,303.741C228.8,394.631,259.425,198.16,296.385,81.9Z" transform="translate(8.5 0)" fill="#64b900"/><path d="M318.626,0s-24.462,17.485-59.17,46.159c-34.747,28.576-79.644,68.563-120.427,112.3a765.389,765.389,0,0,0-56.163,67.127C78.7,231.18,74.7,236.72,71,242.29c-3.842,5.473-7.394,10.955-10.712,16.36-3.464,5.337-6.559,10.664-9.461,15.865-3.037,5.133-5.686,10.227-8.122,15.156-2.561,4.871-4.832,9.607-6.743,14.216-2,4.56-4.027,8.859-5.434,13.041q-2.256,6.215-4.221,11.624-1.586,5.473-2.9,10.014c-1.979,6.006-2.445,10.9-3.28,14.138-.679,3.27-1.038,5.017-1.038,5.017L0,354.227s.475-1.921,1.349-5.511c1.048-3.532,1.863-8.985,4.241-15.4,1.077-3.251,2.29-6.841,3.6-10.751,1.552-3.794,3.231-7.9,5.026-12.284,1.7-4.425,4.017-8.869,6.327-13.614,2.232-4.8,4.813-9.693,7.7-14.681,2.766-5.065,5.745-10.266,9.111-15.457,3.231-5.288,6.666-10.673,10.46-16.03,3.649-5.453,7.53-10.936,11.7-16.4,4.027-5.57,8.355-11.061,12.828-16.612A780.152,780.152,0,0,1,132.061,151.7C175,109.229,221.632,71.009,257.573,43.781,293.485,16.486,318.626,0,318.626,0Z" transform="translate(0 15.331)" fill="#4b8b00"/></g></g></svg>