<svg xmlns="http://www.w3.org/2000/svg" width="1060.966" height="1066.93" viewBox="0 0 1060.966 1066.93"><g transform="translate(2668.199 -778.288) rotate(114)" opacity="0.2"><path d="M601.194,166.119C634.989,59.775,672.228,0,672.228,0S-230.185,90.382,56.113,616.115C464.108,800.478,526.224,401.952,601.194,166.119Z" transform="translate(1652.849 1486.521) rotate(-63)" fill="#90e224"/><g transform="translate(1620.048 1748.282) rotate(-81)" opacity="0.34"><path d="M601.194,166.119C634.988,59.775,672.227,0,672.227,0S-230.186,90.381,56.113,616.115C464.107,800.478,526.224,401.951,601.194,166.119Z" transform="translate(17.243 0)" fill="#90e224"/><path d="M646.307,0S596.688,35.467,526.285,93.629C455.8,151.593,364.732,232.7,282.008,321.412c-41.392,44.305-80.4,90.716-113.921,136.162-8.443,11.356-16.573,22.594-24.071,33.892-7.794,11.1-15,22.221-21.729,33.185-7.026,10.826-13.305,21.631-19.19,32.18-6.161,10.412-11.534,20.745-16.475,30.743-5.2,9.881-9.8,19.486-13.678,28.835-4.055,9.25-8.168,17.97-11.022,26.453q-4.576,12.606-8.562,23.579-3.217,11.1-5.885,20.312c-4.015,12.184-4.96,22.1-6.653,28.677-1.378,6.633-2.106,10.176-2.106,10.176L0,718.521s.964-3.9,2.736-11.18c2.125-7.164,3.779-18.225,8.6-31.236,2.185-6.594,4.644-13.876,7.3-21.808,3.149-7.7,6.554-16.021,10.195-24.918,3.445-8.976,8.148-17.99,12.833-27.615,4.527-9.743,9.763-19.662,15.628-29.78,5.61-10.274,11.652-20.823,18.482-31.354,6.554-10.727,13.522-21.65,21.218-32.515,7.4-11.062,15.273-22.182,23.737-33.263,8.168-11.3,16.947-22.437,26.02-33.7,36.137-45.033,77.548-90.4,121.125-133.446,87.094-86.149,181.687-163.677,254.59-218.906C595.311,33.44,646.307,0,646.307,0Z" transform="translate(0 31.098)" fill="#4b8b00"/></g></g></svg>