<svg xmlns="http://www.w3.org/2000/svg" width="143" height="119" viewBox="0 0 143 119"><g transform="translate(-832 -1216)"><path d="M59.5,0A59.5,59.5,0,1,1,0,59.5,59.5,59.5,0,0,1,59.5,0Z" transform="translate(832 1216)" fill="#ecffd6" opacity="0.6"/><circle cx="47.5" cy="47.5" r="47.5" transform="translate(880 1216)" fill="#fff"/><g transform="translate(0.518 -1.861)"><path d="M35.278,58.235H2.352A2.352,2.352,0,0,0,0,60.587V84.106a2.352,2.352,0,0,0,2.352,2.352H35.278a2.352,2.352,0,0,0,2.352-2.352V60.587A2.352,2.352,0,0,0,35.278,58.235ZM18.815,74.691,4.7,68.786v-5.1l14.111,5.876,14.111-5.876v5.1Z" transform="translate(911 1192.765)" fill="#8fc254"/><path d="M8348.724-2143.536l14.055,5.887,14.241-5.887v5.178l-14.241,5.826-14.055-5.826" transform="translate(-7433.046 3399.947)" fill="#d6ffa7"/></g></g></svg>