<svg xmlns="http://www.w3.org/2000/svg" width="127" height="119" viewBox="0 0 127 119"><g transform="translate(-1387 -1196)"><path d="M59.5,0A59.5,59.5,0,1,1,0,59.5,59.5,59.5,0,0,1,59.5,0Z" transform="translate(1395 1196)" fill="#ecffd6" opacity="0.6"/><circle cx="47.5" cy="47.5" r="47.5" transform="translate(1387 1216)" fill="#fff"/><g transform="translate(1412.994 1242)"><g transform="translate(0.006)"><path d="M31.937,69.89a2.943,2.943,0,0,0-4.449,0c-1.04,1.031-2.08,2.063-3.1,3.111a.613.613,0,0,1-.857.157c-.673-.367-1.39-.664-2.036-1.066a32.266,32.266,0,0,1-7.779-7.079,18.429,18.429,0,0,1-2.788-4.466.64.64,0,0,1,.157-.822c1.04-1.005,2.054-2.036,3.076-3.068a2.954,2.954,0,0,0-.009-4.554c-.813-.822-1.626-1.626-2.438-2.447-.839-.839-1.669-1.687-2.517-2.517a2.962,2.962,0,0,0-4.449.009c-1.049,1.031-2.054,2.089-3.12,3.1A5.065,5.065,0,0,0,.036,53.668,14.479,14.479,0,0,0,1.155,59.9,37.867,37.867,0,0,0,7.876,71.1,41.592,41.592,0,0,0,21.65,81.872a19.921,19.921,0,0,0,7.63,2.22,5.592,5.592,0,0,0,4.8-1.827c.891-1,1.9-1.905,2.841-2.858a2.973,2.973,0,0,0,.017-4.527Q34.446,72.376,31.937,69.89Z" transform="translate(-0.006 -42.105)" fill="#8fc254"/><path d="M247.328,108.428l3.225-.551A14.476,14.476,0,0,0,238.308,96l-.454,3.243a11.188,11.188,0,0,1,9.474,9.186Z" transform="translate(-217.066 -87.61)" fill="#d6ffa7"/><path d="M256.843,6.8A23.78,23.78,0,0,0,243.208,0l-.454,3.243a20.75,20.75,0,0,1,17.559,17.017l3.225-.551A23.955,23.955,0,0,0,256.843,6.8Z" transform="translate(-221.538)" fill="#d6ffa7"/></g></g></g></svg>