<svg xmlns="http://www.w3.org/2000/svg" width="137" height="124" viewBox="0 0 137 124"><g transform="translate(-225 -1187)"><path d="M59.5,0A59.5,59.5,0,1,1,0,59.5,59.5,59.5,0,0,1,59.5,0Z" transform="translate(243 1187)" fill="#ecffd6" opacity="0.6"/><circle cx="47.5" cy="47.5" r="47.5" transform="translate(225 1216)" fill="#fff"/><g transform="translate(190.849 1238)"><path d="M96.006,19.428c0,15.556-17.562,29.964-17.562,29.964a3.073,3.073,0,0,1-3.732,0S57.151,34.984,57.151,19.428a19.428,19.428,0,0,1,38.855,0Z" fill="#8fc254"/><path d="M165.733,118.354a9.774,9.774,0,1,1,9.774-9.774A9.785,9.785,0,0,1,165.733,118.354Z" transform="translate(-89.154 -89.153)" fill="#d6ffa7"/></g></g></svg>