<svg xmlns="http://www.w3.org/2000/svg" width="45" height="45" viewBox="0 0 45 45"><g transform="translate(-751 -155)"><circle cx="22.5" cy="22.5" r="22.5" transform="translate(751 155)" fill="#8fc254" opacity="0.24"/><g transform="translate(613.77 115.32)"><path d="M171.053,59.852c-3.375,2.109-1.994-3.106-1.994-3.106-2.225,1.688-3.03-.193-3.03-.193-4.461,4.781-3.6,1.918-3.6,1.918-.883.383,0-2.224,0-2.224-.614,0-.384-1.764-.384-1.764-.69,2.071-1.726-.537-1.726-.537-.368,0-.613-1.265-.613-1.265s-.245,1.267-.613,1.265c0,0-1.036,2.608-1.726.537,0,0,.23,1.764-.384,1.764,0,0,.883,2.608,0,2.224,0,0,.857,2.864-3.6-1.918,0,0-.805,1.881-3.03.193,0,0,1.38,5.216-1.994,3.106,0,0,3.106,3.068,2.684,3.375a10.2,10.2,0,0,1-2.224.652s1.88,1.534,1.381,1.918c0,0,1.726.843.69,1.572,0,0,5.292,1.458,3.375,1.995,0,0,4.257.307,5.446-.422,1.189.729,5.446.422,5.446.422-1.917-.537,3.375-1.995,3.375-1.995-1.035-.729.69-1.572.69-1.572-.5-.383,1.381-1.918,1.381-1.918a10.2,10.2,0,0,1-2.224-.652C167.947,62.921,171.053,59.852,171.053,59.852Z" transform="translate(0)" fill="#8fc254"/><g transform="translate(149.86 53.967)"><path d="M174.685,70.677l.134-14.975.134,14.975Z" transform="translate(-164.977 -55.702)" fill="#8fc254"/><g transform="translate(9.726 2.118)"><path d="M174.95,61.858a2.337,2.337,0,0,0,.19-.164c.054-.052.124-.106.187-.177l.2-.216a5.476,5.476,0,0,0,.353-.428l.157-.2-.148.2a5.559,5.559,0,0,1-.336.445l-.2.225c-.06.075-.129.132-.182.188a2.383,2.383,0,0,1-.186.174Z" transform="translate(-174.856 -60.674)" fill="#8fc254"/><path d="M174.908,66.057a1.2,1.2,0,0,0,.112-.089,1.244,1.244,0,0,0,.119-.113,1.977,1.977,0,0,0,.149-.158l.164-.2c.057-.072.107-.155.165-.238a2.712,2.712,0,0,0,.167-.262l.155-.281a2.38,2.38,0,0,0,.143-.288c.043-.1.085-.192.126-.285s.084-.181.115-.268l.086-.247.178-.51-.158.517c-.023.078-.049.162-.077.251s-.069.178-.1.273l-.116.291a2.28,2.28,0,0,1-.133.3l-.146.29a2.952,2.952,0,0,1-.158.272c-.056.086-.1.173-.159.249l-.161.211a1.73,1.73,0,0,1-.148.171,1.9,1.9,0,0,1-.241.226Z" transform="translate(-174.832 -62.078)" fill="#8fc254"/><path d="M174.886,71.512s.155-.153.378-.393c.113-.118.24-.261.377-.413s.276-.32.419-.486.274-.34.4-.5l.328-.454.293-.462-.275.473-.311.467c-.118.168-.251.343-.38.52s-.27.346-.4.5-.253.306-.362.429c-.215.25-.365.41-.365.41Z" transform="translate(-174.819 -65.34)" fill="#8fc254"/><path d="M174.729,76.882s1.672-2.728,3.494-5.357c.909-1.314,1.858-2.6,2.638-3.515.2-.227.38-.431.547-.608s.323-.322.454-.439a3.456,3.456,0,0,1,.319-.251l.119-.08-.118.083a3.4,3.4,0,0,0-.313.256c-.128.119-.278.268-.443.447s-.343.387-.533.618c-.76.926-1.679,2.232-2.56,3.564-1.763,2.663-3.374,5.419-3.374,5.419Z" transform="translate(-174.729 -64.094)" fill="#8fc254"/><path d="M184.223,75.325s.243.009.611-.014c.184-.008.4-.033.626-.055.227-.037.473-.06.713-.115l.359-.076a3.125,3.125,0,0,0,.344-.089c.219-.069.432-.113.6-.188l.574-.224-.567.244c-.167.081-.379.131-.6.209a3.483,3.483,0,0,1-.342.1l-.359.089c-.24.063-.486.094-.714.14-.23.03-.445.062-.63.076-.37.036-.621.036-.621.036Z" transform="translate(-180.179 -68.648)" fill="#8fc254"/><path d="M187.683,68.579a.464.464,0,0,1-.055-.071.455.455,0,0,1-.053-.089.731.731,0,0,1-.055-.121c-.014-.046-.03-.1-.046-.149a1.389,1.389,0,0,1-.026-.171.846.846,0,0,1-.013-.184c0-.063.006-.126.009-.19a2.224,2.224,0,0,1,.062-.366,1.055,1.055,0,0,1,.041-.166l.052-.144.107-.3-.1.3-.047.145a1.011,1.011,0,0,0-.035.166,2.215,2.215,0,0,0-.05.364c0,.062,0,.125,0,.186a.817.817,0,0,0,.018.178,1.4,1.4,0,0,0,.03.164l.049.141a.687.687,0,0,0,.055.112.712.712,0,0,0,.1.144Z" transform="translate(-182.023 -64.094)" fill="#8fc254"/><path d="M184.458,71.633a4.409,4.409,0,0,1-.12-.427,4.892,4.892,0,0,1-.127-.962,3.41,3.41,0,0,1,.028-.517c.015-.081.022-.161.043-.234s.035-.143.057-.205a1.753,1.753,0,0,1,.126-.291l.056-.106L184.47,69a1.735,1.735,0,0,0-.111.3c-.019.062-.03.132-.047.205s-.02.152-.031.233a3.368,3.368,0,0,0,0,.509,4.892,4.892,0,0,0,.17.937,4.044,4.044,0,0,0,.137.408Z" transform="translate(-180.172 -65.39)" fill="#8fc254"/><path d="M182.194,76.78s-.037-.091-.08-.23a4.369,4.369,0,0,1-.126-.514c-.014-.1-.035-.189-.04-.279s-.02-.173-.018-.245c0-.143,0-.239,0-.239s.009.095.022.237c0,.071.026.152.04.24s.042.178.064.27a4.262,4.262,0,0,0,.167.491c.053.131.1.213.1.213Z" transform="translate(-178.862 -69.055)" fill="#8fc254"/><path d="M174.8,84.3s.13-.11.378-.29c.124-.089.268-.207.445-.322l.587-.4c.214-.147.46-.284.712-.441s.517-.325.807-.471l.88-.471c.3-.169.616-.3.929-.446l.937-.429c.311-.135.63-.241.931-.358l.872-.328a8.17,8.17,0,0,1,.8-.253l1.654-.479-1.641.519a8.129,8.129,0,0,0-.788.272l-.862.348c-.3.124-.612.237-.918.38l-.922.449c-.308.153-.623.291-.913.467l-.863.489c-.284.152-.54.33-.789.487s-.486.3-.7.454l-.571.407c-.173.118-.309.236-.428.326-.236.18-.366.3-.366.3Z" transform="translate(-174.769 -71.547)" fill="#8fc254"/><path d="M191.322,79.83a5,5,0,0,1,.168-.742c.029-.09.065-.179.095-.262s.076-.155.107-.219l.133-.2-.124.2-.1.222c-.026.085-.057.173-.082.264a4.953,4.953,0,0,0-.134.74Z" transform="translate(-184.254 -70.855)" fill="#8fc254"/><path d="M183.24,85.4l.146.043c.093.028.226.066.385.107l.547.144c.2.05.417.093.633.142l.322.07c.106.021.21.052.313.063l.561.081.547.079-.55-.058-.565-.06c-.1-.008-.208-.034-.316-.051l-.326-.058c-.218-.041-.437-.075-.641-.118l-.555-.124c-.163-.035-.3-.068-.391-.092l-.148-.037Z" transform="translate(-179.594 -74.868)" fill="#8fc254"/></g><g transform="translate(0 2.118)"><path d="M173.538,61.91a2.378,2.378,0,0,1-.186-.174c-.052-.055-.122-.113-.182-.188l-.2-.225a5.563,5.563,0,0,1-.336-.445l-.148-.2.156.2c.1.115.209.286.354.428l.2.216c.062.071.132.125.186.177a2.379,2.379,0,0,0,.191.164Z" transform="translate(-163.718 -60.674)" fill="#8fc254"/><path d="M172.75,66.166a1.293,1.293,0,0,1-.117-.1,1.347,1.347,0,0,1-.124-.126,1.73,1.73,0,0,1-.148-.171l-.161-.211c-.055-.076-.1-.163-.159-.249a2.852,2.852,0,0,1-.158-.272l-.146-.29a2.34,2.34,0,0,1-.133-.3l-.116-.291c-.037-.095-.078-.184-.1-.273l-.077-.251-.158-.517s.072.2.178.51c.027.077.056.16.086.247s.075.175.115.268l.126.285a2.318,2.318,0,0,0,.144.288l.155.281a2.712,2.712,0,0,0,.167.262c.057.082.108.165.165.238l.164.2a1.9,1.9,0,0,0,.149.158,1.2,1.2,0,0,0,.12.113,1.17,1.17,0,0,0,.112.089Z" transform="translate(-162.947 -62.078)" fill="#8fc254"/><path d="M172.062,71.6s-.151-.16-.365-.41c-.109-.123-.231-.271-.362-.429s-.265-.332-.4-.5-.262-.352-.38-.52l-.311-.467-.275-.473.293.462.328.454c.124.163.263.332.4.5s.282.334.419.486.264.295.377.413c.223.24.378.393.378.393Z" transform="translate(-162.268 -65.34)" fill="#8fc254"/><path d="M164.837,77.02s-1.611-2.757-3.374-5.419c-.88-1.331-1.8-2.638-2.559-3.564-.191-.231-.37-.438-.533-.618s-.315-.328-.443-.447a3.339,3.339,0,0,0-.313-.256l-.117-.083.119.08a3.409,3.409,0,0,1,.319.251c.131.117.284.263.454.439s.352.381.547.608c.781.911,1.729,2.2,2.638,3.515,1.822,2.629,3.493,5.357,3.493,5.357Z" transform="translate(-155.11 -64.094)" fill="#8fc254"/><path d="M160.617,75.46s-.251,0-.621-.035c-.185-.014-.4-.047-.63-.077-.228-.046-.474-.076-.714-.14l-.359-.089a3.415,3.415,0,0,1-.342-.1c-.219-.078-.43-.128-.6-.209l-.566-.244.574.224c.169.075.382.119.6.188a3.169,3.169,0,0,0,.344.089l.359.076c.24.055.486.077.713.115.229.022.443.047.627.055.368.023.611.014.611.014Z" transform="translate(-154.703 -68.648)" fill="#8fc254"/><path d="M161.867,68.533a.377.377,0,0,0,.053-.064.37.37,0,0,0,.05-.08.652.652,0,0,0,.055-.112c.015-.043.031-.091.049-.141a1.315,1.315,0,0,0,.03-.164.82.82,0,0,0,.018-.178c0-.061,0-.124,0-.186a2.215,2.215,0,0,0-.05-.364,1.059,1.059,0,0,0-.035-.166c-.017-.051-.033-.1-.047-.145l-.1-.3s.042.118.107.3l.052.144a1.11,1.11,0,0,1,.041.166,2.266,2.266,0,0,1,.062.366c0,.064.006.127.009.19a.846.846,0,0,1-.012.184,1.312,1.312,0,0,1-.026.171c-.016.053-.031.1-.046.149a.806.806,0,0,1-.055.121.418.418,0,0,1-.053.089.465.465,0,0,1-.055.071Z" transform="translate(-157.619 -64.094)" fill="#8fc254"/><path d="M164.911,71.676s.063-.164.135-.424a5.272,5.272,0,0,0,.17-.967,3.608,3.608,0,0,0,0-.525,2.843,2.843,0,0,0-.076-.452l-.057-.175a1.143,1.143,0,0,0-.056-.13c-.034-.072-.053-.112-.053-.112l.057.11a1.162,1.162,0,0,1,.063.128l.065.174a2.778,2.778,0,0,1,.1.454,3.632,3.632,0,0,1,.025.533,5.329,5.329,0,0,1-.127.991c-.06.266-.119.442-.119.442Z" transform="translate(-159.366 -65.39)" fill="#8fc254"/><path d="M167.138,76.71s.043-.08.1-.21a3.947,3.947,0,0,0,.172-.485c.023-.091.052-.181.066-.268s.036-.167.04-.238c.014-.141.022-.235.022-.235s0,.095,0,.237c0,.072-.012.154-.019.243s-.027.183-.041.277a3.976,3.976,0,0,1-.131.51c-.044.137-.083.227-.083.227Z" transform="translate(-160.645 -69.055)" fill="#8fc254"/><path d="M161.65,84.507s-.13-.115-.366-.3c-.119-.09-.255-.208-.428-.326l-.571-.407c-.209-.15-.449-.293-.7-.454s-.505-.336-.789-.487l-.863-.489c-.29-.176-.605-.313-.913-.467l-.922-.449c-.306-.143-.62-.256-.917-.38l-.862-.348a8.164,8.164,0,0,0-.787-.272l-1.642-.519,1.655.479a8.164,8.164,0,0,1,.795.253l.873.328c.3.117.619.223.93.358l.937.429c.312.147.633.277.929.446l.88.471c.29.146.551.32.807.471s.5.294.713.441l.587.4c.177.115.321.233.445.322.247.18.378.29.378.29Z" transform="translate(-151.894 -71.547)" fill="#8fc254"/><path d="M157.9,79.841a4.911,4.911,0,0,0-.115-.739c-.023-.091-.052-.18-.077-.265l-.091-.224-.119-.2.138.194.112.217c.032.083.07.172.1.262a5.052,5.052,0,0,1,.185.743Z" transform="translate(-155.11 -70.855)" fill="#8fc254"/><path d="M162.09,85.53l-.148.037c-.094.025-.228.058-.391.092l-.555.124c-.2.043-.423.078-.64.118l-.325.058c-.108.017-.213.043-.316.051l-.565.06-.55.058.548-.079.561-.081c.1-.011.206-.041.313-.063l.322-.07c.216-.049.433-.092.634-.142l.546-.144c.16-.041.293-.079.386-.107l.146-.043Z" transform="translate(-155.743 -74.868)" fill="#8fc254"/></g></g><path d="M175.148,91.3s-.23-1.107-.334-2.23c-.025-.28-.046-.561-.052-.825a5.837,5.837,0,0,1,.015-.722,2.185,2.185,0,0,1,.034-.286,1.5,1.5,0,0,1,.044-.217l.056-.184-.033.189a1.434,1.434,0,0,0-.017.217,2.085,2.085,0,0,0,0,.283,6.012,6.012,0,0,0,.07.7c.037.256.091.529.148.8.117.541.265,1.076.382,1.474s.206.658.206.658Z" transform="translate(-15.16 -19.61)" fill="#8fc254"/></g></g></svg>