<svg xmlns="http://www.w3.org/2000/svg" xmlns:xlink="http://www.w3.org/1999/xlink" width="1920" height="621.696" viewBox="0 0 1920 621.696"><defs><linearGradient id="a" x1="0.29" y1="-0.873" x2="0.5" y2="1" gradientUnits="objectBoundingBox"><stop offset="0" stop-color="#fff"/><stop offset="0.498" stop-color="#e6e6e8"/><stop offset="1" stop-color="#e6e6e8"/></linearGradient><clipPath id="b"><path d="M0,0H1920V621.7H0Z" transform="translate(0 8692.303)" opacity="0.2" fill="url(#a)"/></clipPath></defs><g transform="translate(0 -8437.303)"><path d="M0,0H1920V484.181H0Z" transform="translate(0 8450.374)" fill="#16312c"/><g transform="translate(0 -255)" opacity="0.09" clip-path="url(#b)"><g transform="translate(713.436 8344.613)" opacity="0.23"><g transform="translate(232.141 124.132)"><path d="M174.685,1260.5,185.493,55.7,196.3,1260.5Z" transform="translate(606.345 -55.702)" fill="#fff"/><g transform="translate(782.551 170.386)"><path d="M174.95,155.944a187.935,187.935,0,0,0,15.319-13.193c4.318-4.215,9.972-8.533,15.044-14.256,5.175-5.517,10.727-11.446,16.312-17.375,11.618-11.412,20.494-25.154,28.41-34.441,7.539-9.63,12.612-16,12.612-16s-4.764,6.614-11.927,16.484c-7.5,9.63-15.9,23.818-27.039,35.778-5.346,6.134-10.692,12.337-15.73,18.094-4.866,6-10.383,10.658-14.633,15.113a191.406,191.406,0,0,1-14.941,13.982Z" transform="translate(-167.376 -60.674)" fill="#fff"/><path d="M174.908,299.445a96.476,96.476,0,0,0,9.047-7.162,99.876,99.876,0,0,0,9.6-9.081c3.564-3.8,8.019-7.608,11.96-12.749,4.044-4.969,8.5-10.349,13.16-16.038,4.558-5.826,8.636-12.509,13.262-19.123,4.387-6.785,9.6-13.4,13.4-21.042,4.113-7.436,8.293-15.01,12.509-22.583a191.264,191.264,0,0,0,11.515-23.132c3.5-7.779,6.854-15.456,10.144-22.892,3.221-7.505,6.785-14.531,9.253-21.59,2.468-7.025,4.8-13.708,6.957-19.876,8.568-24.606,14.325-41.055,14.325-41.055s-5.106,16.655-12.748,41.6c-1.885,6.271-3.976,13.057-6.169,20.219s-5.518,14.325-8.43,21.967c-3.016,7.608-6.134,15.456-9.321,23.44A183.648,183.648,0,0,1,262.639,194.1c-3.941,7.814-7.882,15.627-11.72,23.338-3.6,7.848-8.568,14.8-12.749,21.864-4.489,6.922-8.362,13.879-12.783,20.014-4.593,6.032-8.944,11.755-12.92,17-3.77,5.483-8.293,9.664-11.891,13.742a103.8,103.8,0,0,1-9.938,10.11,104.121,104.121,0,0,1-9.425,8.053Z" transform="translate(-168.774 20.704)" fill="#fff"/><path d="M174.886,286.826s12.474-12.3,30.4-31.6c9.116-9.527,19.294-21.007,30.329-33.242,11-12.234,22.207-25.771,33.687-39.1,10.932-13.742,22.07-27.347,32.042-40.438,9.664-13.365,18.677-25.805,26.423-36.5C341.917,83.641,351.307,68.8,351.307,68.8s-8.876,15.25-22.139,38.074c-7.334,11-15.9,23.852-25.051,37.594-9.493,13.5-20.185,27.587-30.6,41.809-11,13.777-21.693,27.827-32.282,40.507-10.59,12.714-20.391,24.64-29.164,34.544C194.8,281.446,182.7,294.3,182.7,294.3Z" transform="translate(-169.506 209.743)" fill="#fff"/><path d="M174.729,891.3S309.238,671.836,455.81,460.323C528.976,354.567,605.26,250.8,668.077,177.495c15.73-18.3,30.569-34.715,44.037-48.937,13.605-14.154,25.976-25.908,36.5-35.3,10.829-8.979,19.225-16.244,25.668-20.185,6.237-4.181,9.561-6.443,9.561-6.443s-3.29,2.33-9.458,6.683c-6.34,4.044-14.565,11.446-25.189,20.63-10.281,9.561-22.344,21.59-35.606,35.983-13.194,14.462-27.622,31.151-42.906,49.726C609.544,254.122,535.59,359.262,464.754,466.389,322.911,680.61,193.269,902.4,193.269,902.4Z" transform="translate(-174.729 137.548)" fill="#fff"/><path d="M184.325,135.8s19.568.72,49.177-1.131c14.77-.651,31.939-2.673,50.377-4.387,18.265-3.016,38.039-4.8,57.333-9.219,9.665-2.022,19.362-4.078,28.856-6.1,9.664-1.713,18.779-4.558,27.69-7.2,17.649-5.586,34.784-9.081,48.423-15.147,27.725-10.829,46.162-18.06,46.162-18.06s-18.231,7.848-45.579,19.671c-13.468,6.511-30.466,10.555-48.046,16.826-8.876,2.913-17.992,6.1-27.553,8.19-9.527,2.331-19.157,4.729-28.855,7.128-19.294,5.106-39.1,7.539-57.437,11.24-18.505,2.4-35.777,5-50.719,6.134-29.781,2.913-49.931,2.879-49.931,2.879Z" transform="translate(141.101 401.443)" fill="#fff"/><path d="M207.474,223.279a37.435,37.435,0,0,1-4.455-5.723,36.566,36.566,0,0,1-4.25-7.2c-1.3-2.913-3.393-5.929-4.387-9.732-1.165-3.7-2.4-7.745-3.666-11.994-1.268-4.284-1.337-9.013-2.091-13.742-.479-4.8-1.61-9.733-1.028-14.77.24-5.038.514-10.144.754-15.284-.069-10.247,3.53-20.048,5-29.438,1.2-4.627,1.474-9.287,3.29-13.331,1.474-4.113,2.879-7.985,4.147-11.583,5.175-14.325,8.6-23.852,8.6-23.852s-3.084,9.664-7.745,24.092c-1.2,3.633-2.468,7.574-3.8,11.686-1.645,4.044-1.816,8.7-2.81,13.365-1.131,9.356-4.421,19.122-4.009,29.266-.069,5-.137,10.041-.206,14.976-.445,4.969.857,9.732,1.439,14.359.926,4.592,1.062,9.184,2.433,13.228,1.406,4.009,2.742,7.848,3.941,11.343,1.028,3.6,3.153,6.306,4.421,9.013a31.123,31.123,0,0,0,4.044,6.409,31.334,31.334,0,0,0,4.25,5.175Z" transform="translate(247.972 137.548)" fill="#fff"/><path d="M204.135,289.553a354.6,354.6,0,0,1-9.664-34.373c-4.832-20.767-9.561-48.937-10.212-77.381a274.446,274.446,0,0,1,2.227-41.569c1.234-6.511,1.782-12.954,3.462-18.814,1.644-5.894,2.775-11.515,4.591-16.518,3.633-9.972,6.889-18.163,10.144-23.44,2.913-5.449,4.524-8.567,4.524-8.567s-1.509,3.187-4.113,8.773c-2.981,5.38-5.826,13.708-8.944,23.749-1.542,5-2.4,10.658-3.769,16.518-1.371,5.826-1.611,12.234-2.468,18.711a270.9,270.9,0,0,0-.274,40.918c2.056,27.862,7.985,55.243,13.674,75.36a325.648,325.648,0,0,0,11,32.831Z" transform="translate(140.722 212.671)" fill="#fff"/><path d="M203.347,196.452c0-.034-2.981-7.334-6.442-18.471a351.371,351.371,0,0,1-10.179-41.363c-1.131-7.677-2.81-15.216-3.187-22.447-.549-7.231-1.645-13.913-1.474-19.7-.069-11.515-.137-19.191-.137-19.191s.72,7.608,1.782,19.054c.377,5.723,2.056,12.269,3.187,19.328,1.028,7.06,3.359,14.359,5.141,21.727a342.816,342.816,0,0,0,13.468,39.479c4.283,10.555,7.745,17.169,7.745,17.169Z" transform="translate(64.78 425.065)" fill="#fff"/><path d="M174.8,456.616s10.487-8.876,30.4-23.372c10.007-7.128,21.59-16.655,35.778-25.874,14.119-9.527,29.952-20.288,47.258-31.974,17.237-11.823,37.011-22.858,57.3-35.5,20.6-12.166,41.6-26.148,64.942-37.9,22.995-12.268,46.709-24.983,70.836-37.9,23.783-13.571,49.588-24.092,74.708-35.881,25.257-11.583,50.48-23.132,75.359-34.51,25.052-10.863,50.651-19.4,74.88-28.821,24.365-9.184,47.875-18.026,70.184-26.387,22.035-9.15,44.106-14.291,63.981-20.356,79.917-23.1,133.1-38.519,133.1-38.519S920.714,96.3,841.482,121.355c-19.705,6.511-41.535,12.2-63.365,21.864-22.036,8.91-45.3,18.266-69.328,28.033-23.92,9.973-49.211,19.054-73.886,30.569-24.434,11.892-49.348,23.989-74.16,36.121-24.742,12.337-50.1,23.406-73.44,37.56-23.646,13.365-46.95,26.559-69.465,39.307-22.858,12.2-43.42,26.559-63.5,39.2C334.529,367,315.2,378.447,298.409,390.544c-16.827,11.995-32.248,23-45.922,32.728-13.914,9.527-24.846,19.02-34.441,26.251-18.951,14.462-29.437,23.749-29.437,23.749Z" transform="translate(-172.433 569.456)" fill="#fff"/><path d="M191.322,192.631s4.181-30.534,13.536-59.7c2.331-7.265,5.244-14.393,7.609-21.11,3.187-6.443,6.1-12.474,8.6-17.614,6.442-9.459,10.726-15.8,10.726-15.8s-3.975,6.477-9.973,16.175c-2.262,5.243-4.9,11.343-7.745,17.855-2.056,6.819-4.626,13.947-6.614,21.247-7.985,29.369-10.761,59.561-10.761,59.561Z" transform="translate(377.317 529.399)" fill="#fff"/><path d="M186.083,85.4s4.283,1.233,11.755,3.461c7.5,2.262,18.163,5.312,31.014,8.6,12.919,3.393,27.93,7.368,44.037,11.618,16.141,4.044,33.584,7.5,50.959,11.412,8.636,1.885,17.34,3.769,25.908,5.654,8.568,1.714,16.9,4.147,25.188,5.038,16.484,2.365,31.872,4.592,45.1,6.477,26.456,3.838,44.037,6.374,44.037,6.374s-17.649-1.851-44.242-4.661c-13.262-1.405-28.787-3.05-45.476-4.8-8.362-.617-16.723-2.707-25.394-4.112-8.636-1.542-17.444-3.119-26.216-4.661-17.512-3.29-35.161-6.066-51.542-9.527-16.347-3.667-31.563-7.059-44.654-10.007-13.09-2.81-23.954-5.449-31.459-7.437-7.574-1.919-11.892-2.982-11.892-2.982Z" transform="translate(107.232 761.955)" fill="#fff"/></g><g transform="translate(0 170.386)"><path d="M256.76,160.125a191.406,191.406,0,0,1-14.941-13.982c-4.215-4.455-9.8-9.116-14.633-15.113-5.038-5.757-10.384-11.96-15.73-18.094-11.138-11.96-19.534-26.148-27.039-35.778-7.163-9.87-11.927-16.484-11.927-16.484s5.072,6.374,12.577,16c7.95,9.287,16.826,23.029,28.444,34.441,5.552,5.929,11.137,11.857,16.346,17.375,5,5.723,10.658,10.041,14.976,14.256a191.283,191.283,0,0,0,15.353,13.193Z" transform="translate(533.364 -60.674)" fill="#fff"/><path d="M299.97,308.218a104.08,104.08,0,0,1-9.425-8.053,107.843,107.843,0,0,1-9.937-10.11c-3.6-4.078-8.122-8.259-11.892-13.742-3.975-5.243-8.327-10.966-12.92-17-4.421-6.134-8.293-13.091-12.783-20.014-4.181-7.059-9.184-14.016-12.749-21.864-3.838-7.71-7.813-15.524-11.72-23.338a188.467,188.467,0,0,1-10.727-23.749c-3.187-7.985-6.3-15.833-9.32-23.44-2.948-7.642-6.238-14.8-8.431-21.967s-4.284-13.948-6.2-20.219c-7.608-24.948-12.714-41.6-12.714-41.6s5.757,16.45,14.291,41.055c2.194,6.168,4.523,12.851,6.957,19.876,2.5,7.059,6.066,14.085,9.253,21.59,3.324,7.437,6.717,15.113,10.178,22.892a186.552,186.552,0,0,0,11.549,23.132c4.181,7.573,8.362,15.147,12.474,22.583,3.8,7.642,9.012,14.256,13.4,21.042,4.592,6.614,8.7,13.3,13.262,19.123,4.661,5.688,9.116,11.069,13.16,16.038,3.907,5.141,8.4,8.945,11.961,12.749a95.865,95.865,0,0,0,9.629,9.081,94.057,94.057,0,0,0,9.013,7.162Z" transform="translate(488.716 20.704)" fill="#fff"/><path d="M338.573,294.3s-12.132-12.851-29.369-32.968c-8.773-9.9-18.575-21.83-29.13-34.544-10.623-12.68-21.315-26.73-32.316-40.507-10.418-14.222-21.11-28.307-30.6-41.809-9.184-13.742-17.717-26.594-25.051-37.594C178.842,84.052,169.966,68.8,169.966,68.8s9.424,14.839,23.543,37.148c7.745,10.692,16.758,23.132,26.423,36.5,10.006,13.091,21.145,26.7,32.042,40.438,11.481,13.331,22.653,26.868,33.688,39.1s21.214,23.715,30.329,33.242c17.923,19.294,30.4,31.6,30.4,31.6Z" transform="translate(449.358 209.743)" fill="#fff"/><path d="M748.034,902.4S618.426,680.61,476.583,466.389c-70.836-107.127-144.79-212.267-205.893-286.735-15.353-18.574-29.746-35.263-42.906-49.726-13.3-14.393-25.36-26.422-35.641-35.983-10.624-9.184-18.848-16.587-25.222-20.63-6.135-4.353-9.425-6.683-9.425-6.683s3.359,2.262,9.561,6.443c6.477,3.941,14.839,11.206,25.668,20.185,10.521,9.39,22.858,21.145,36.5,35.3,13.468,14.222,28.307,30.637,44.037,48.937,62.816,73.3,139.1,177.072,212.267,282.829C632.1,671.836,766.574,891.3,766.574,891.3Z" transform="translate(34.517 137.548)" fill="#fff"/><path d="M464.907,146.633s-20.185.034-49.965-2.844c-14.908-1.165-32.18-3.77-50.685-6.169-18.335-3.7-38.177-6.134-57.437-11.24-9.664-2.4-19.328-4.8-28.855-7.128-9.6-2.09-18.712-5.278-27.553-8.19-17.58-6.237-34.579-10.315-48.08-16.826-27.313-11.823-45.545-19.671-45.545-19.671s18.471,7.231,46.162,18.06c13.6,6.066,30.74,9.561,48.423,15.147,8.91,2.639,18.061,5.483,27.656,7.2,9.528,2.022,19.225,4.078,28.89,6.1,19.293,4.421,39.067,6.2,57.333,9.219,18.437,1.748,35.606,3.77,50.411,4.387,29.574,1.885,49.143,1.165,49.143,1.165Z" transform="translate(10.895 401.443)" fill="#fff"/><path d="M161.867,219.544a30.328,30.328,0,0,0,4.284-5.175,29.754,29.754,0,0,0,4.009-6.409c1.3-2.707,3.427-5.415,4.455-9.013,1.233-3.5,2.5-7.334,3.907-11.343,1.371-4.044,1.542-8.636,2.433-13.228.617-4.627,1.885-9.39,1.474-14.359-.069-4.935-.171-9.972-.206-14.976.412-10.144-2.879-19.911-4.01-29.266-1.028-4.661-1.165-9.321-2.81-13.365-1.336-4.112-2.638-8.053-3.769-11.686-4.66-14.428-7.779-24.092-7.779-24.092s3.393,9.527,8.6,23.852c1.268,3.6,2.673,7.471,4.147,11.583,1.782,4.044,2.09,8.7,3.29,13.331,1.439,9.39,5.072,19.191,5,29.438.274,5.141.48,10.247.72,15.284.582,5.038-.515,9.972-.994,14.77-.754,4.729-.789,9.459-2.091,13.742-1.268,4.25-2.536,8.293-3.666,11.994-.994,3.8-3.153,6.819-4.387,9.732a33.535,33.535,0,0,1-4.25,7.2,37.435,37.435,0,0,1-4.455,5.723Z" transform="translate(179.906 137.548)" fill="#fff"/><path d="M164.911,293.014s5.106-13.194,10.863-34.1a424.328,424.328,0,0,0,13.708-77.792,289.886,289.886,0,0,0,0-42.255,228.78,228.78,0,0,0-6.134-36.394c-1.68-5.175-3.222-9.9-4.559-14.085-1.267-4.25-3.324-7.539-4.523-10.452-2.741-5.757-4.249-9.047-4.249-9.047s1.679,3.221,4.626,8.842c1.336,2.845,3.6,6.1,5.072,10.281q2.365,6.272,5.243,13.982a223.736,223.736,0,0,1,7.916,36.5,292.363,292.363,0,0,1,2.022,42.871c-.754,29.267-5.449,58.327-10.246,79.746-4.8,21.384-9.562,35.538-9.562,35.538Z" transform="translate(281.179 212.671)" fill="#fff"/><path d="M167.138,190.8s3.5-6.442,7.916-16.86A317.508,317.508,0,0,0,188.865,134.9c1.816-7.3,4.181-14.565,5.277-21.59,1.131-6.957,2.879-13.434,3.187-19.123,1.1-11.343,1.782-18.917,1.782-18.917s-.034,7.608-.1,19.054c.137,5.757-.994,12.372-1.542,19.534-.411,7.231-2.159,14.7-3.324,22.276a319.81,319.81,0,0,1-10.555,41.021c-3.53,11-6.683,18.265-6.683,18.265Z" transform="translate(355.271 425.065)" fill="#fff"/><path d="M936.81,473.271s-10.453-9.287-29.438-23.749c-9.561-7.231-20.528-16.723-34.407-26.251-13.674-9.732-29.095-20.733-45.922-32.728-16.826-12.1-36.12-23.543-55.928-36.531-20.082-12.646-40.644-27-63.5-39.2-22.515-12.748-45.819-25.942-69.465-39.307-23.338-14.154-48.7-25.223-73.44-37.56-24.811-12.132-49.691-24.229-74.194-36.121-24.64-11.515-49.9-20.6-73.817-30.569-24.091-9.767-47.326-19.122-69.362-28.033-21.829-9.664-43.66-15.353-63.331-21.864C204.7,96.3,151.894,79.614,151.894,79.614s53.256,15.422,133.138,38.519c19.876,6.066,41.912,11.206,63.948,20.356,22.343,8.362,45.887,17.2,70.218,26.387,24.263,9.424,49.794,17.958,74.846,28.821,24.845,11.378,50.137,22.926,75.393,34.51,25.12,11.789,50.925,22.31,74.708,35.881,24.126,12.92,47.841,25.634,70.835,37.9,23.338,11.755,44.345,25.737,64.942,37.9,20.253,12.646,40.061,23.681,57.333,35.5,17.237,11.686,33.1,22.447,47.19,31.974,14.221,9.218,25.8,18.746,35.778,25.874,19.911,14.5,30.4,23.372,30.4,23.372Z" transform="translate(-151.894 569.456)" fill="#fff"/><path d="M189.848,193.556s-2.022-29.986-9.287-59.493c-1.85-7.3-4.215-14.462-6.168-21.281-2.673-6.614-5.141-12.714-7.3-17.992-5.757-9.8-9.6-16.381-9.6-16.381S161.952,84.681,168.567,94c2.639,5.141,5.723,11.1,9.012,17.478,2.571,6.717,5.655,13.811,8.157,21.076,10.007,29.026,14.907,59.766,14.907,59.766Z" transform="translate(34.517 529.399)" fill="#fff"/><path d="M439.509,95.852s-4.318,1.063-11.891,2.982c-7.54,1.988-18.334,4.627-31.46,7.437-13.091,2.947-28.307,6.34-44.688,10.007-16.347,3.461-34,6.237-51.508,9.527-8.773,1.542-17.581,3.118-26.182,4.661-8.705,1.4-17.1,3.5-25.463,4.112-16.655,1.748-32.179,3.393-45.441,4.8-26.594,2.81-44.277,4.661-44.277,4.661s17.615-2.536,44.071-6.374c13.194-1.885,28.615-4.112,45.1-6.477,8.293-.891,16.586-3.324,25.188-5.038,8.533-1.885,17.237-3.77,25.908-5.654,17.374-3.907,34.818-7.368,50.993-11.412,16.039-4.249,31.083-8.225,43.968-11.618,12.886-3.29,23.578-6.34,31.049-8.6,7.471-2.228,11.755-3.461,11.755-3.461Z" transform="translate(71.18 761.955)" fill="#fff"/></g></g></g></g></g></svg>