<svg xmlns="http://www.w3.org/2000/svg" width="688.994" height="728.618" viewBox="0 0 688.994 728.618"><g transform="translate(535.956 -2019.332) rotate(61)" opacity="0.5"><g transform="translate(1661.048 1542.879) rotate(-81)" opacity="0.34"><path d="M462.614,127.827C488.618,46,517.273,0,517.273,0s-694.4,69.548-474.1,474.1C357.127,615.961,404.925,309.3,462.614,127.827Z" transform="translate(13.268 0)" fill="#90e224"/><path d="M497.328,0s-38.181,27.292-92.356,72.047C350.737,116.649,280.659,179.063,217,247.324A1194.671,1194.671,0,0,0,129.341,352.1c-6.5,8.739-12.752,17.386-18.522,26.08-6,8.542-11.541,17.1-16.721,25.535-5.407,8.33-10.238,16.645-14.767,24.763-4.741,8.012-8.875,15.963-12.677,23.657-4,7.6-7.542,14.995-10.525,22.189-3.12,7.118-6.286,13.827-8.482,20.355q-3.521,9.7-6.588,18.144-2.476,8.542-4.528,15.63c-3.09,9.375-3.817,17.008-5.119,22.067-1.06,5.1-1.62,7.83-1.62,7.83L0,552.9s.742-3,2.105-8.6c1.636-5.513,2.908-14.024,6.619-24.035,1.681-5.074,3.574-10.678,5.619-16.781,2.423-5.922,5.043-12.328,7.845-19.174,2.651-6.907,6.27-13.843,9.875-21.249,3.484-7.5,7.512-15.13,12.025-22.915,4.317-7.906,8.966-16.023,14.222-24.126,5.043-8.254,10.4-16.66,16.327-25.02,5.695-8.512,11.753-17.069,18.265-25.6,6.286-8.694,13.04-17.265,20.022-25.929a1217.7,1217.7,0,0,1,93.2-102.686c67.018-66.291,139.807-125.948,195.9-168.446C458.086,25.732,497.328,0,497.328,0Z" transform="translate(0 23.929)" fill="#4b8b00"/></g><path d="M462.614,127.827C488.618,46,517.273,0,517.273,0s-694.4,69.548-474.095,474.1C357.127,615.961,404.925,309.3,462.614,127.827Z" transform="translate(1645.288 1348.456) rotate(-63)" fill="#63b902"/></g></svg>