<svg xmlns="http://www.w3.org/2000/svg" width="995.22" height="907.942" viewBox="0 0 995.22 907.942"><g transform="translate(195.295 916.751) rotate(-105)" opacity="0.34"><g transform="translate(18.87 0)"><path d="M657.952,181.8C694.936,65.418,735.691,0,735.691,0S-251.917,98.914,61.41,674.281C507.923,876.049,575.9,439.9,657.952,181.8Z" transform="translate(0 0)" fill="#90e224"/></g><path d="M707.324,0S653.02,38.816,575.97,102.468c-77.136,63.436-176.8,152.2-267.339,249.287-45.3,48.488-87.993,99.28-124.677,149.017-9.24,12.428-18.137,24.728-26.344,37.092-8.53,12.149-16.414,24.319-23.781,36.318-7.69,11.848-14.561,23.673-21,35.218-6.742,11.4-12.623,22.7-18.03,33.646-5.686,10.814-10.726,21.326-14.97,31.558-4.438,10.123-8.94,19.666-12.063,28.95q-5.008,13.8-9.37,25.805-3.521,12.149-6.44,22.229c-4.394,13.334-5.428,24.19-7.281,31.384-1.508,7.26-2.3,11.136-2.3,11.136L0,786.355s1.055-4.265,2.994-12.235c2.326-7.841,4.136-19.946,9.414-34.184C14.8,732.72,17.49,724.75,20.4,716.069c3.446-8.422,7.172-17.534,11.157-27.27,3.77-9.823,8.918-19.688,14.044-30.222,4.955-10.662,10.684-21.519,17.1-32.591,6.139-11.244,12.752-22.789,20.227-34.314,7.173-11.74,14.8-23.694,23.221-35.584,8.1-12.106,16.715-24.277,25.978-36.4,8.94-12.364,18.547-24.555,28.477-36.877,39.549-49.285,84.869-98.935,132.56-146.044,95.316-94.282,198.84-179.13,278.625-239.572C651.512,36.6,707.324,0,707.324,0Z" transform="translate(0 34.034)" fill="#4b8b00"/></g></svg>