<svg xmlns="http://www.w3.org/2000/svg" xmlns:xlink="http://www.w3.org/1999/xlink" width="441.992" height="472.376" viewBox="0 0 441.992 472.376"><defs><clipPath id="a"><rect width="256" height="267" transform="translate(-0.154 0.429)" fill="#fff"/></clipPath><clipPath id="b"><rect width="111.779" height="174.797" transform="translate(0 -1)"/></clipPath></defs><g transform="translate(-237 -6144.624)"><g transform="translate(-24 4357)"><rect width="372" height="387" rx="34" transform="translate(261 1873)" fill="#90e224"/><ellipse cx="36" cy="35.5" rx="36" ry="35.5" transform="translate(384 1963)" fill="#d2f3a7"/><g transform="translate(377.154 1992.571)" clip-path="url(#a)"><path d="M7092.16,2259.386s12.711-291.017,256.939-266.5,0,266.5,0,266.5Z" transform="translate(-7092.33 -1991.377)" fill="#fff" opacity="0.6"/></g></g><g transform="translate(567.277 6349.61) rotate(-140)" clip-path="url(#b)"><g transform="translate(6.47 90.544) rotate(-53)" opacity="0.08"><path d="M83.764,23.145C88.473,8.328,93.661,0,93.661,0S-32.072,12.593,7.818,85.843C64.664,111.53,73.319,56,83.764,23.145Z" transform="translate(2.402 0)" fill="#ceffdc"/><path d="M90.05,0S83.136,4.942,73.327,13.045A365.227,365.227,0,0,0,39.292,44.782,216.317,216.317,0,0,0,23.419,63.754c-1.176,1.582-2.309,3.148-3.354,4.722-1.086,1.547-2.09,3.1-3.028,4.624-.979,1.508-1.854,3.014-2.674,4.484-.858,1.451-1.607,2.89-2.3,4.283-.724,1.377-1.366,2.715-1.906,4.018-.565,1.289-1.138,2.5-1.536,3.686q-.638,1.756-1.193,3.285-.448,1.547-.82,2.83a39.564,39.564,0,0,0-.927,4c-.192.924-.293,1.418-.293,1.418L0,100.111s.134-.543.381-1.558c.3-1,.527-2.539,1.2-4.352.3-.919.647-1.933,1.017-3.039l1.42-3.472c.48-1.251,1.135-2.506,1.788-3.848.631-1.357,1.36-2.74,2.177-4.149.782-1.431,1.624-2.9,2.575-4.368.913-1.495,1.884-3.016,2.956-4.53,1.031-1.541,2.128-3.091,3.307-4.635,1.138-1.574,2.361-3.126,3.625-4.695A220.493,220.493,0,0,1,37.323,42.873,367.5,367.5,0,0,1,72.8,12.373C82.944,4.659,90.05,0,90.05,0Z" transform="translate(0 4.333)" fill="#4b8b00"/></g><g transform="translate(-2.918 123.749) rotate(-71)" opacity="0.34"><path d="M83.764,23.145C88.473,8.328,93.661,0,93.661,0S-32.072,12.593,7.818,85.843C64.664,111.53,73.319,56,83.764,23.145Z" transform="translate(2.402 0)" fill="#90e224"/><path d="M90.05,0S83.136,4.942,73.327,13.045A365.226,365.226,0,0,0,39.292,44.782,216.316,216.316,0,0,0,23.419,63.754c-1.176,1.582-2.309,3.148-3.354,4.722-1.086,1.547-2.09,3.1-3.028,4.624-.979,1.508-1.854,3.014-2.674,4.484-.858,1.451-1.607,2.89-2.3,4.283-.724,1.377-1.366,2.715-1.906,4.018-.565,1.289-1.138,2.5-1.536,3.686q-.638,1.756-1.193,3.285-.448,1.547-.82,2.83a39.563,39.563,0,0,0-.927,4c-.192.924-.293,1.418-.293,1.418L0,100.111s.134-.543.381-1.558c.3-1,.527-2.539,1.2-4.352.3-.919.647-1.933,1.017-3.038l1.42-3.472c.48-1.251,1.135-2.506,1.788-3.848.631-1.357,1.36-2.74,2.177-4.149.782-1.431,1.624-2.9,2.575-4.368.913-1.495,1.884-3.017,2.956-4.53,1.031-1.541,2.128-3.091,3.307-4.635,1.138-1.574,2.361-3.126,3.625-4.695A220.486,220.486,0,0,1,37.323,42.873,367.5,367.5,0,0,1,72.8,12.373C82.944,4.659,90.05,0,90.05,0Z" transform="translate(0 4.333)" fill="#4b8b00"/></g></g></g></svg>