<svg xmlns="http://www.w3.org/2000/svg" width="139" height="139" viewBox="0 0 139 139">
  <g id="Group_298" data-name="Group 298" transform="translate(-891 -2459)">
    <circle id="Ellipse_58" data-name="Ellipse 58" cx="69.5" cy="69.5" r="69.5" transform="translate(891 2459)" fill="#90e224"/>
    <g id="flag" transform="translate(934.054 2496.054)" opacity="0.95">
      <g id="Group_295" data-name="Group 295">
        <path id="Path_423" data-name="Path 423" d="M51,49.825a23.5,23.5,0,0,0-9.727-10.448,30.018,30.018,0,0,0-13.786-3.988V15.977c2.226-.582,4.551-.1,7,.4a26.919,26.919,0,0,0,5.418.735,11.123,11.123,0,0,0,4.309-.819l.945-.389V2.5l-2.113.87c-2.511,1.034-5.148.491-7.941-.084a19.539,19.539,0,0,0-7.614-.539V0H24.429V35.391A30.009,30.009,0,0,0,10.7,39.376,23.5,23.5,0,0,0,.977,49.825L0,51.977H51.977ZM27.487,5.875c2.226-.582,4.551-.1,7,.4a19.536,19.536,0,0,0,7.614.54v6.976c-2.226.582-4.551.1-7-.4a19.542,19.542,0,0,0-7.614-.539ZM4.923,48.929A21.223,21.223,0,0,1,12.252,42a27.178,27.178,0,0,1,13.736-3.6A27.177,27.177,0,0,1,39.724,42a21.223,21.223,0,0,1,7.329,6.924Z" fill="#fff" stroke="#fff" stroke-width="1.5"/>
      </g>
    </g>
  </g>
</svg>
