<svg xmlns="http://www.w3.org/2000/svg" width="139" height="139" viewBox="0 0 139 139">
  <g id="Group_297" data-name="Group 297" transform="translate(-358 -2459)">
    <circle id="Ellipse_57" data-name="Ellipse 57" cx="69.5" cy="69.5" r="69.5" transform="translate(358 2459)" fill="#fff"/>
    <g id="eye" transform="translate(373 2390)" opacity="0.8">
      <g id="Group_296" data-name="Group 296" transform="translate(23.039 120.938)">
        <path id="Path_425" data-name="Path 425" d="M84.592,140.015l.641-1.046-.641-1.047a38.516,38.516,0,0,0-7.695-8.507,34.7,34.7,0,0,0-45.451,0,38.888,38.888,0,0,0-7.754,8.5l-.654,1.056.654,1.055a38.888,38.888,0,0,0,7.754,8.5,34.7,34.7,0,0,0,45.451,0,38.5,38.5,0,0,0,7.695-8.507Zm-10.364,5.517a30.688,30.688,0,0,1-40.122,0,37.789,37.789,0,0,1-6.273-6.558,37.793,37.793,0,0,1,6.273-6.559,30.688,30.688,0,0,1,40.122,0,37.3,37.3,0,0,1,6.226,6.564A37.305,37.305,0,0,1,74.228,145.532Zm0,0" transform="translate(-23.039 -120.938)" fill="#64b900"/>
        <path id="Path_426" data-name="Path 426" d="M179.149,165.867c-7.324,0-13.282,5.119-13.282,11.41s5.958,11.41,13.282,11.41,13.282-5.119,13.282-11.41S186.473,165.867,179.149,165.867Zm0,19.023c-4.886,0-8.861-3.415-8.861-7.613s3.975-7.613,8.861-7.613,8.861,3.415,8.861,7.613S184.035,184.89,179.149,184.89Zm0,0" transform="translate(-148.048 -159.246)" fill="#64b900"/>
      </g>
    </g>
  </g>
</svg>
