<svg xmlns="http://www.w3.org/2000/svg" xmlns:xlink="http://www.w3.org/1999/xlink" width="326" height="326" viewBox="0 0 326 326"><defs><filter id="a" x="0" y="0" width="326" height="326" filterUnits="userSpaceOnUse"><feOffset dy="50" input="SourceAlpha"/><feGaussianBlur stdDeviation="35" result="b"/><feFlood flood-opacity="0.051"/><feComposite operator="in" in2="b"/><feComposite in="SourceGraphic"/></filter></defs><g transform="translate(-257 -3682)"><g transform="translate(404 3770)" fill="none" stroke="#90e224" stroke-width="2"><rect width="91" height="111" rx="10" stroke="none"/><rect x="1" y="1" width="89" height="109" rx="9" fill="none"/></g><g transform="matrix(1, 0, 0, 1, 257, 3682)" filter="url(#a)"><circle cx="58" cy="58" r="58" transform="translate(105 55)" fill="#fff"/></g><g transform="translate(404.267 3713.554)"><path d="M40.787,84.379a23.488,23.488,0,0,0-4.365-6.011,22.009,22.009,0,0,0-6.344-4.452,22.639,22.639,0,0,0-9.56-2.025,22.65,22.65,0,0,0-9.511,2,21.99,21.99,0,0,0-6.333,4.415,23.628,23.628,0,0,0-4.424,6.07,2.421,2.421,0,0,0,0,2.137,23.489,23.489,0,0,0,4.365,6.011,22.01,22.01,0,0,0,6.344,4.452A22.639,22.639,0,0,0,20.517,99a22.65,22.65,0,0,0,9.511-2,21.99,21.99,0,0,0,6.333-4.415,23.628,23.628,0,0,0,4.424-6.07A2.421,2.421,0,0,0,40.787,84.379ZM20.517,96.1A10.651,10.651,0,1,1,31.168,85.446,10.651,10.651,0,0,1,20.517,96.1Z" transform="translate(0)" fill="#90e224"/><circle cx="7.746" cy="7.746" r="7.746" transform="translate(12.77 77.7)" fill="#90e224"/></g></g></svg>