<svg xmlns="http://www.w3.org/2000/svg" width="99.317" height="83.182" viewBox="0 0 99.317 83.182"><g transform="translate(-148.35 -52.68)"><path d="M247.667,84.057c-14.763,9.227-8.722-13.589-8.722-13.589-9.732,7.383-13.256-.844-13.256-.844-19.515,20.916-15.768,8.389-15.768,8.389-3.861,1.677,0-9.73,0-9.73-2.687,0-1.679-7.718-1.679-7.718-3.019,9.06-7.55-2.348-7.55-2.348-1.61.007-2.683-5.536-2.683-5.536s-1.073,5.543-2.683,5.536c0,0-4.532,11.407-7.55,2.348,0,0,1.008,7.718-1.679,7.718,0,0,3.861,11.407,0,9.73,0,0,3.747,12.527-15.77-8.389,0,0-3.522,8.227-13.254.844,0,0,6.039,22.817-8.722,13.589,0,0,13.588,13.422,11.741,14.763,0,0-6.039,2.516-9.729,2.853,0,0,8.223,6.712,6.041,8.389,0,0,7.548,3.689,3.019,6.878,0,0,23.15,6.376,14.763,8.726,0,0,18.622,1.342,23.823-1.847,5.2,3.188,23.823,1.847,23.823,1.847-8.387-2.35,14.763-8.726,14.763-8.726-4.53-3.188,3.019-6.878,3.019-6.878-2.182-1.677,6.041-8.389,6.041-8.389-3.689-.337-9.729-2.853-9.729-2.853C234.079,97.479,247.667,84.057,247.667,84.057Z" transform="translate(0)" fill="#90e224"/><g transform="translate(154.954 58.311)"><path d="M174.685,121.211l.588-65.509.588,65.509Z" transform="translate(-132.218 -55.702)" fill="#4b8b00"/><g transform="translate(42.55 9.264)"><path d="M174.95,65.854a10.222,10.222,0,0,0,.833-.717c.235-.229.542-.464.818-.775s.583-.622.887-.945a23.944,23.944,0,0,0,1.545-1.873c.41-.524.686-.87.686-.87s-.259.36-.648.9a24.306,24.306,0,0,1-1.47,1.945c-.291.334-.581.671-.855.984s-.565.579-.8.822a10.408,10.408,0,0,1-.812.76Z" transform="translate(-174.538 -60.674)" fill="#4b8b00"/><path d="M174.908,75.97a5.244,5.244,0,0,0,.492-.389,5.427,5.427,0,0,0,.522-.494,8.643,8.643,0,0,0,.65-.693c.22-.27.462-.563.716-.872s.47-.68.721-1.04a11.86,11.86,0,0,0,.729-1.144c.224-.4.451-.816.68-1.228a10.4,10.4,0,0,0,.626-1.258c.19-.423.373-.84.552-1.245s.369-.79.5-1.174.261-.745.378-1.081c.466-1.338.779-2.232.779-2.232l-.693,2.262c-.1.341-.216.71-.335,1.1s-.3.779-.458,1.194-.334.84-.507,1.275a9.985,9.985,0,0,1-.583,1.291c-.214.425-.429.85-.637,1.269a12.9,12.9,0,0,1-.693,1.189c-.244.376-.455.755-.7,1.088l-.7.924a7.573,7.573,0,0,1-.647.747,8.319,8.319,0,0,1-1.053.988Z" transform="translate(-174.574 -58.562)" fill="#4b8b00"/><path d="M174.886,80.657s.678-.669,1.653-1.718c.5-.518,1.049-1.142,1.649-1.807s1.207-1.4,1.832-2.126c.594-.747,1.2-1.487,1.742-2.2l1.437-1.984c.77-1.213,1.28-2.02,1.28-2.02l-1.2,2.07-1.362,2.044c-.516.734-1.1,1.5-1.664,2.273-.6.749-1.18,1.513-1.755,2.2s-1.109,1.34-1.586,1.878c-.939,1.094-1.6,1.793-1.6,1.793Z" transform="translate(-174.593 -53.657)" fill="#4b8b00"/><path d="M174.729,111.472s7.314-11.933,15.283-23.434c3.978-5.75,8.126-11.393,11.542-15.378.855-1,1.662-1.888,2.394-2.661s1.412-1.409,1.984-1.919a15.144,15.144,0,0,1,1.4-1.1c.339-.227.52-.35.52-.35l-.514.363a14.88,14.88,0,0,0-1.37,1.122c-.559.52-1.215,1.174-1.936,1.957s-1.5,1.694-2.333,2.7c-3.324,4.049-7.345,9.766-11.2,15.591-7.712,11.648-14.762,23.708-14.762,23.708Z" transform="translate(-174.729 -55.53)" fill="#4b8b00"/><path d="M184.228,77.894s1.064.039,2.674-.061c.8-.035,1.737-.145,2.739-.239.993-.164,2.068-.261,3.117-.5.526-.11,1.053-.222,1.569-.332a13.678,13.678,0,0,0,1.506-.391c.96-.3,1.891-.494,2.633-.824l2.51-.982s-.991.427-2.478,1.07c-.732.354-1.657.574-2.612.915a15.232,15.232,0,0,1-1.5.445c-.518.127-1.042.257-1.569.388-1.049.278-2.126.41-3.123.611-1.006.13-1.945.272-2.758.334-1.619.158-2.715.157-2.715.157Z" transform="translate(-166.533 -48.682)" fill="#4b8b00"/><path d="M188.524,75.149a2.036,2.036,0,0,1-.242-.311,1.987,1.987,0,0,1-.231-.391,3.192,3.192,0,0,1-.239-.529c-.063-.2-.13-.421-.2-.652a6.1,6.1,0,0,1-.114-.747,3.7,3.7,0,0,1-.056-.8c.013-.274.028-.552.041-.831a9.726,9.726,0,0,1,.272-1.6,4.629,4.629,0,0,1,.179-.725c.08-.224.157-.434.225-.63.281-.779.468-1.3.468-1.3s-.168.525-.421,1.31c-.065.2-.134.412-.207.635a4.426,4.426,0,0,0-.153.727,9.687,9.687,0,0,0-.218,1.591c0,.272-.007.546-.011.814a3.58,3.58,0,0,0,.078.781,6.109,6.109,0,0,0,.132.719c.076.218.149.427.214.617a3,3,0,0,0,.24.49,3.115,3.115,0,0,0,.451.63Z" transform="translate(-163.76 -55.53)" fill="#4b8b00"/><path d="M185.294,80.888a19.278,19.278,0,0,1-.526-1.869,21.4,21.4,0,0,1-.555-4.207,14.927,14.927,0,0,1,.121-2.26c.067-.354.1-.7.188-1.023s.151-.626.25-.9a7.669,7.669,0,0,1,.552-1.275c.158-.3.246-.466.246-.466s-.082.173-.224.477a7.589,7.589,0,0,0-.486,1.291c-.084.272-.13.58-.2.9s-.088.665-.134,1.017a14.73,14.73,0,0,0-.015,2.225,21.4,21.4,0,0,0,.743,4.1,17.7,17.7,0,0,0,.6,1.785Z" transform="translate(-166.543 -53.581)" fill="#4b8b00"/><path d="M183.093,81.863s-.162-.4-.35-1a19.113,19.113,0,0,1-.553-2.249c-.061-.417-.153-.827-.173-1.221s-.089-.757-.08-1.071c0-.626-.007-1.043-.007-1.043s.039.414.1,1.036c.021.311.112.667.173,1.051s.183.781.28,1.181a18.631,18.631,0,0,0,.732,2.147c.233.574.421.934.421.934Z" transform="translate(-168.514 -48.069)" fill="#4b8b00"/><path d="M174.8,100.113s.57-.483,1.653-1.271c.544-.388,1.174-.906,1.945-1.407.768-.518,1.629-1.1,2.57-1.739s2.012-1.243,3.116-1.93c1.12-.661,2.262-1.422,3.531-2.061,1.25-.667,2.54-1.358,3.852-2.061,1.293-.738,2.7-1.31,4.062-1.951l4.1-1.876c1.362-.591,2.754-1.055,4.071-1.567s2.6-.98,3.816-1.435a35.748,35.748,0,0,1,3.479-1.107c4.345-1.256,7.237-2.094,7.237-2.094l-7.18,2.27a35.588,35.588,0,0,0-3.445,1.189c-1.2.484-2.463.993-3.77,1.524s-2.676,1.036-4.017,1.662c-1.329.647-2.683,1.3-4.032,1.964s-2.724,1.273-3.993,2.042L188.013,92.4c-1.243.663-2.361,1.444-3.453,2.132-1.077.706-2.128,1.329-3.041,1.986l-2.5,1.78c-.757.518-1.351,1.034-1.873,1.427-1.03.786-1.6,1.291-1.6,1.291Z" transform="translate(-174.669 -44.322)" fill="#4b8b00"/><path d="M191.322,84.621a21.875,21.875,0,0,1,.736-3.246c.127-.4.285-.783.414-1.148.173-.35.332-.678.468-.958.35-.514.583-.859.583-.859s-.216.352-.542.88c-.123.285-.266.617-.421.971-.112.371-.252.758-.36,1.155a21.664,21.664,0,0,0-.585,3.239Z" transform="translate(-160.403 -45.361)" fill="#4b8b00"/><path d="M183.361,85.4s.233.067.639.188.988.289,1.686.468l2.394.632c.878.22,1.826.408,2.771.62l1.409.307c.466.093.919.225,1.37.274l2.452.352,2.394.347-2.406-.253-2.473-.261c-.455-.034-.909-.147-1.381-.224l-1.425-.253c-.952-.179-1.912-.33-2.8-.518l-2.428-.544c-.712-.153-1.3-.3-1.711-.4s-.647-.162-.647-.162Z" transform="translate(-167.412 -39.327)" fill="#4b8b00"/></g><g transform="translate(0 9.264)"><path d="M177.073,66.081a10.408,10.408,0,0,1-.812-.76c-.229-.242-.533-.5-.8-.822s-.565-.65-.855-.984a24.306,24.306,0,0,1-1.47-1.945c-.389-.537-.648-.9-.648-.9s.276.347.684.87c.432.5.915,1.252,1.547,1.873.3.322.606.645.889.945s.579.546.814.775a10.405,10.405,0,0,0,.835.717Z" transform="translate(-134.111 -60.674)" fill="#4b8b00"/><path d="M178.153,76.447a5.662,5.662,0,0,1-.512-.438,5.868,5.868,0,0,1-.54-.55,7.573,7.573,0,0,1-.647-.747l-.7-.924c-.24-.334-.451-.712-.7-1.088a12.494,12.494,0,0,1-.693-1.189c-.209-.419-.425-.844-.637-1.269a10.248,10.248,0,0,1-.583-1.291c-.173-.434-.343-.861-.507-1.275s-.339-.8-.458-1.194l-.337-1.1c-.414-1.357-.691-2.262-.691-2.262s.313.894.777,2.232c.119.335.246.7.378,1.081s.33.766.5,1.174.365.822.553,1.245a10.146,10.146,0,0,0,.628,1.258l.678,1.228a11.86,11.86,0,0,0,.729,1.144c.25.36.473.723.721,1.04s.5.6.716.872a8.315,8.315,0,0,0,.65.693,5.212,5.212,0,0,0,.524.494,5.109,5.109,0,0,0,.49.389Z" transform="translate(-135.27 -58.562)" fill="#4b8b00"/><path d="M179.134,81.063s-.66-.7-1.6-1.793c-.477-.539-1.01-1.187-1.584-1.878s-1.159-1.453-1.757-2.2c-.566-.773-1.148-1.539-1.664-2.273-.5-.747-.963-1.446-1.362-2.044l-1.2-2.07s.512.807,1.28,2.02l1.437,1.984c.544.712,1.15,1.452,1.742,2.2.624.725,1.232,1.461,1.832,2.126s1.153,1.289,1.649,1.807c.975,1.049,1.653,1.718,1.653,1.718Z" transform="translate(-136.291 -53.657)" fill="#4b8b00"/><path d="M189.606,112.076s-7.047-12.06-14.76-23.708c-3.852-5.825-7.873-11.542-11.2-15.591-.835-1.01-1.617-1.917-2.333-2.7s-1.379-1.437-1.938-1.957A14.612,14.612,0,0,0,158.009,67l-.512-.363.52.35a14.894,14.894,0,0,1,1.4,1.1c.572.511,1.243,1.15,1.984,1.919s1.539,1.666,2.394,2.661c3.416,3.986,7.563,9.628,11.542,15.378,7.97,11.5,15.281,23.434,15.281,23.434Z" transform="translate(-147.057 -55.53)" fill="#4b8b00"/><path d="M173.54,78.483s-1.1,0-2.717-.155c-.811-.063-1.75-.2-2.756-.335-1-.2-2.076-.334-3.123-.611-.525-.13-1.051-.261-1.569-.388a14.933,14.933,0,0,1-1.5-.445c-.956-.339-1.88-.561-2.614-.915-1.485-.643-2.476-1.07-2.476-1.07l2.51.982c.74.33,1.671.52,2.633.824a13.866,13.866,0,0,0,1.5.391c.518.11,1.045.222,1.571.332,1.049.24,2.124.337,3.117.5,1,.1,1.936.2,2.741.239,1.608.1,2.672.063,2.672.063Z" transform="translate(-147.67 -48.682)" fill="#4b8b00"/><path d="M161.867,74.946a1.65,1.65,0,0,0,.233-.281,1.618,1.618,0,0,0,.218-.348,2.857,2.857,0,0,0,.242-.49c.067-.19.136-.4.212-.617a5.749,5.749,0,0,0,.132-.719,3.58,3.58,0,0,0,.08-.781c0-.268-.009-.542-.011-.814a9.687,9.687,0,0,0-.218-1.591,4.631,4.631,0,0,0-.153-.727c-.073-.224-.143-.438-.2-.635l-.423-1.31s.184.518.468,1.3c.069.2.145.406.225.63a4.85,4.85,0,0,1,.179.725,9.93,9.93,0,0,1,.272,1.6c.015.28.026.557.039.831a3.7,3.7,0,0,1-.054.8,5.759,5.759,0,0,1-.114.747c-.069.231-.138.451-.2.652a3.53,3.53,0,0,1-.239.529,1.822,1.822,0,0,1-.231.391,2.036,2.036,0,0,1-.242.311Z" transform="translate(-143.284 -55.53)" fill="#4b8b00"/><path d="M164.911,81.076s.278-.717.591-1.854a23.072,23.072,0,0,0,.745-4.23,15.762,15.762,0,0,0,0-2.3,12.436,12.436,0,0,0-.334-1.979c-.091-.281-.175-.539-.248-.766a5,5,0,0,0-.246-.568c-.149-.313-.231-.492-.231-.492l.252.481a5.065,5.065,0,0,1,.276.559q.129.341.285.76a12.171,12.171,0,0,1,.43,1.984,15.9,15.9,0,0,1,.11,2.331,23.322,23.322,0,0,1-.557,4.336c-.261,1.163-.52,1.932-.52,1.932Z" transform="translate(-140.656 -53.581)" fill="#4b8b00"/><path d="M167.138,81.555s.19-.35.43-.917a17.261,17.261,0,0,0,.751-2.122c.1-.4.227-.792.287-1.174s.156-.73.173-1.04c.06-.617.1-1.029.1-1.029s0,.414-.006,1.036c.007.313-.054.673-.084,1.062s-.117.8-.181,1.211a17.391,17.391,0,0,1-.574,2.23c-.192.6-.363.993-.363.993Z" transform="translate(-138.733 -48.069)" fill="#4b8b00"/><path d="M194.572,101.018s-.568-.5-1.6-1.291c-.52-.393-1.116-.909-1.871-1.427l-2.5-1.78c-.915-.658-1.964-1.28-3.041-1.986-1.092-.688-2.21-1.468-3.453-2.132l-3.777-2.137c-1.269-.77-2.648-1.371-3.993-2.042s-2.7-1.317-4.034-1.964c-1.34-.626-2.713-1.12-4.014-1.662s-2.573-1.04-3.771-1.524a35.737,35.737,0,0,0-3.443-1.189l-7.183-2.27,7.239,2.094a35.726,35.726,0,0,1,3.477,1.107c1.215.455,2.5.935,3.818,1.435s2.707.976,4.07,1.567c1.351.619,2.726,1.247,4.1,1.876s2.769,1.213,4.062,1.951c1.312.7,2.6,1.394,3.852,2.061,1.269.639,2.411,1.4,3.531,2.061,1.1.688,2.178,1.288,3.117,1.93l2.566,1.739c.773.5,1.4,1.019,1.945,1.407,1.083.788,1.653,1.271,1.653,1.271Z" transform="translate(-151.894 -44.322)" fill="#4b8b00"/><path d="M159.256,84.671a21.486,21.486,0,0,0-.5-3.235c-.1-.4-.229-.786-.335-1.157-.145-.36-.28-.691-.4-.978-.313-.533-.522-.891-.522-.891l.6.848c.143.28.311.6.49.95.14.365.307.751.444,1.146a22.1,22.1,0,0,1,.811,3.25Z" transform="translate(-147.057 -45.361)" fill="#4b8b00"/><path d="M173.873,85.968s-.235.058-.647.162-1,.252-1.711.4l-2.43.544c-.889.188-1.848.339-2.8.518-.477.084-.956.17-1.424.253s-.93.19-1.384.224l-2.471.261-2.407.253,2.4-.347,2.452-.352c.451-.048.9-.181,1.37-.274s.937-.2,1.409-.307c.945-.212,1.893-.4,2.773-.62l2.391-.632c.7-.179,1.282-.345,1.688-.468s.639-.188.639-.188Z" transform="translate(-146.105 -39.327)" fill="#4b8b00"/></g></g><path d="M176.464,106.369s-1-4.845-1.463-9.755c-.11-1.226-.2-2.454-.225-3.609a25.538,25.538,0,0,1,.067-3.157,9.562,9.562,0,0,1,.151-1.252,6.537,6.537,0,0,1,.192-.95c.155-.512.244-.8.244-.8l-.143.827a6.276,6.276,0,0,0-.076.95,9.118,9.118,0,0,0,0,1.237,26.306,26.306,0,0,0,.306,3.084c.162,1.122.4,2.312.648,3.5.512,2.368,1.159,4.707,1.673,6.447s.9,2.877.9,2.877Z" transform="translate(22.8 29.493)" fill="#4b8b00"/></g></svg>