<svg xmlns="http://www.w3.org/2000/svg" width="213" height="263" viewBox="0 0 213 263"><g transform="translate(-1138 -3734)"><g transform="translate(1138 3766)" fill="none" stroke="#90e224" stroke-width="2"><rect width="190" height="231" rx="10" stroke="none"/><rect x="1" y="1" width="188" height="229" rx="9" fill="none"/></g><path d="M40,0H150a40,40,0,0,1,40,40V191a40,40,0,0,1-40,40H40A40,40,0,0,1,0,191V40A40,40,0,0,1,40,0Z" transform="translate(1161 3734)" fill="#90e224"/><g transform="translate(1220.431 3819.678)"><path d="M253.99,308.283v-20.63l9.091,5.249,8.774,5.065V318.6Z" transform="translate(-218.259 -246.781)" fill="#e0e2dd"/><path d="M375.7,297.968l17.866-10.314v20.63L375.7,318.6Z" transform="translate(-322.677 -246.782)" fill="#fff"/><g transform="translate(35.445 31.052)"><path d="M312.946,263.594l17.6-10.16.133-.232,9.337,5.39-17.866,10.314Z" transform="translate(-304.284 -248.278)" fill="#e0e2dd"/><path d="M251.981,228.859l17.865-10.314,9.023,5.21-.208.364-17.446,10.072Z" transform="translate(-251.981 -218.545)" fill="#e0e2dd"/></g><path d="M10.559,308.284v-20.63l9.092,5.248,8.774,5.066V318.6Z" transform="translate(-9.417 -246.782)" fill="#fff"/><path d="M132.279,297.968l17.865-10.314v20.63L132.279,318.6Z" transform="translate(-113.842 -246.782)" fill="#fff"/><g transform="translate(0.856 31.052)"><path d="M69.525,263.593l17.6-10.159.133-.232,9.337,5.39L78.727,268.906Z" transform="translate(-60.861 -248.278)" fill="#e0e2dd"/><path d="M8.548,228.859l17.866-10.314,9.022,5.21-.208.364L17.783,234.189Z" transform="translate(-8.548 -218.545)" fill="#e0e2dd"/></g><path d="M141.054,102.532l-8.775-5.068V76.835l17.865,10.316v20.628Z" transform="translate(-113.842 -65.918)" fill="#e0e2dd"/><path d="M253.99,87.151l17.865-10.315v20.63L253.99,107.78Z" transform="translate(-218.259 -65.919)" fill="#fff"/><g transform="translate(18.152 1.098)"><path d="M191.236,52.776l17.6-10.16.133-.232,9.336,5.39L200.438,58.089Z" transform="translate(-182.573 -37.46)" fill="#e0e2dd"/><path d="M130.27,18.041,148.135,7.727l9.023,5.21-.208.364L139.5,23.373Z" transform="translate(-130.27 -7.727)" fill="#e0e2dd"/></g><path d="M405.523,412.484l-5.189,3a1.428,1.428,0,1,0,1.428,2.473l5.189-3a1.428,1.428,0,0,0-1.428-2.473Z" transform="translate(-343.197 -353.711)" fill="#fff"/><path d="M2.521,61.337a1.427,1.427,0,0,0,.714,1.236l17.3,9.984.011.005a1.438,1.438,0,0,0,.157.078l.01,0a1.425,1.425,0,0,0,.151.051l.042.011c.042.01.085.019.128.025l.044.007a1.321,1.321,0,0,0,.339,0l.044-.007c.043-.007.086-.015.128-.025l.043-.011a1.379,1.379,0,0,0,.15-.051l.011,0a1.4,1.4,0,0,0,.157-.077l.011-.005,16.58-9.572,16.58,9.572.011.006a1.422,1.422,0,0,0,.157.077l.011,0a1.4,1.4,0,0,0,.15.051l.043.011c.042.01.085.019.128.025l.044.007a1.321,1.321,0,0,0,.339,0l.044-.007c.043-.007.086-.015.128-.025l.043-.011a1.384,1.384,0,0,0,.15-.051l.011,0a1.445,1.445,0,0,0,.157-.077l.011-.006,17.3-9.984a1.427,1.427,0,0,0,.714-1.236V41.367s0-.008,0-.013a1.409,1.409,0,0,0-.012-.174l0-.012a1.433,1.433,0,0,0-.031-.155l-.012-.043c-.012-.041-.026-.083-.042-.123-.006-.014-.011-.028-.016-.042a1.472,1.472,0,0,0-.074-.15l0,0a1.43,1.43,0,0,0-.093-.139l-.028-.035q-.041-.051-.086-.1l-.031-.032a1.406,1.406,0,0,0-.119-.1l-.009-.007a1.425,1.425,0,0,0-.145-.1l-.011-.007L57.258,30.559V11.412s0-.008,0-.012a1.425,1.425,0,0,0-.012-.175l0-.009a1.394,1.394,0,0,0-.032-.158c0-.013-.007-.027-.011-.04-.012-.042-.027-.085-.043-.126-.005-.013-.01-.026-.015-.039a1.318,1.318,0,0,0-.17-.3l-.027-.034q-.042-.052-.087-.1l-.03-.031a1.411,1.411,0,0,0-.119-.105L56.7,10.28a1.434,1.434,0,0,0-.145-.1l-.01-.007L39.251.191a1.428,1.428,0,0,0-1.428,0L20.53,10.176l-.01.006a1.422,1.422,0,0,0-.146.1l-.007.006a1.407,1.407,0,0,0-.121.107l-.03.03q-.046.048-.087.1l-.027.034a1.317,1.317,0,0,0-.17.294c-.006.013-.011.027-.016.041q-.024.062-.042.125l-.012.042a1.423,1.423,0,0,0-.031.156s0,.007,0,.01a1.414,1.414,0,0,0-.012.175s0,.008,0,.012V30.558L3.235,40.13l-.01.007a1.4,1.4,0,0,0-.146.1l-.007.006a1.381,1.381,0,0,0-.121.107l-.03.031q-.045.047-.087.1l-.027.034a1.436,1.436,0,0,0-.093.14v0a1.417,1.417,0,0,0-.075.152c-.006.014-.011.028-.016.042-.016.041-.03.082-.042.124l-.012.042a1.407,1.407,0,0,0-.031.155l0,.011a1.411,1.411,0,0,0-.012.175s0,.008,0,.012v19.97h0Zm2.855-17.5,6.15,3.551a1.422,1.422,0,0,0,.688.4l7.6,4.388V68.849L5.376,60.513ZM28.818,17.434a1.422,1.422,0,0,0,.694.4l7.6,4.388V38.894L22.671,30.558V13.885Zm24.158-6.022L38.537,19.749l-5.776-3.335L47.2,8.078ZM70.27,41.367,55.831,49.7l-5.775-3.334,14.439-8.336ZM21.244,49.7l-5.776-3.335,14.438-8.336,5.776,3.335Zm18.721-5.864,6.15,3.551a1.423,1.423,0,0,0,.687.4l7.6,4.388V68.848L39.965,60.513V43.839Zm7.236.881-5.808-3.353,14.438-8.336,5.808,3.353Zm7.2-14.162L39.965,38.894V22.222L54.4,13.885Zm-33.16,2.473,5.807,3.353L12.612,44.72,6.8,41.367Zm1.428,35.818V52.175l14.438-8.336V60.513Zm34.587,0V52.175L71.7,43.839V60.513ZM38.537,3.076l5.808,3.353L29.906,14.766,24.1,11.412Z" transform="translate(-2.521 0)" fill="none"/><path d="M463.016,399.171a1.428,1.428,0,0,0,0,2.855A1.428,1.428,0,0,0,463.016,399.171Z" transform="translate(-396.402 -342.454)" fill="#fff"/></g></g></svg>