<svg xmlns="http://www.w3.org/2000/svg" width="212" height="243" viewBox="0 0 212 243"><g transform="translate(-293 -3619)"><g transform="translate(293 3619)"><g transform="translate(0 12)" fill="none" stroke="#90e224" stroke-width="2"><rect width="190" height="231" rx="10" stroke="none"/><rect x="1" y="1" width="188" height="229" rx="9" fill="none"/></g><rect width="190" height="231" rx="42" transform="translate(22)" fill="#90e224"/><g transform="translate(82.489 28)"><path d="M152.971,7.278a3.637,3.637,0,0,1,3.639,3.639V29.4c5.8.713,17.3,3.254,25.475,12.037V3.639a3.639,3.639,0,1,1,7.278,0v37.8c8.177-8.784,19.676-11.324,25.475-12.037V10.918a3.639,3.639,0,1,1,7.279,0V116.456a36.317,36.317,0,0,1-32.753,36.025v18.564a3.639,3.639,0,1,1-7.279,0V152.481a36.316,36.316,0,0,1-32.753-36.025V10.918A3.637,3.637,0,0,1,152.971,7.278Z" transform="translate(-149.332)" fill="none"/><path d="M266.666,243.3c5.8.713,17.3,3.254,25.475,12.037V232.789c-5.016-14.189-18.828-17.719-25.475-18.589Z" transform="translate(-259.388 -141.119)" fill="#fff"/><path d="M196.142,214.2c-6.647.87-20.459,4.4-25.475,18.589v22.553c8.177-8.784,19.676-11.324,25.475-12.037Z" transform="translate(-130.636 -141.12)" fill="#fff"/><g transform="translate(7.278 73.081)"><path d="M266.666,243.3c5.8.713,17.3,3.254,25.475,12.037V232.789c-5.016-14.189-18.828-17.719-25.475-18.589Z" transform="translate(-266.666 -214.2)" fill="#fff"/></g><g transform="translate(40.031 73.081)"><path d="M196.142,214.2c-6.647.87-20.459,4.4-25.475,18.589v22.553c8.177-8.784,19.676-11.324,25.475-12.037Z" transform="translate(-170.667 -214.201)" fill="#fff"/></g><g transform="translate(7.278 36.689)"><path d="M266.666,107.534v29.1c5.8.713,17.3,3.253,25.475,12.037V126.123C287.124,111.934,273.313,108.4,266.666,107.534Z" transform="translate(-266.666 -107.534)" fill="#fff"/><path d="M170.666,126.123v22.553c8.177-8.784,19.676-11.324,25.475-12.037v-29.1C189.494,108.4,175.682,111.934,170.666,126.123Z" transform="translate(-137.913 -107.534)" fill="#fff"/></g><g transform="translate(7.278 36.689)"><path d="M292.142,126.123v6.824c-5.016-14.189-18.828-17.719-25.475-18.589v-6.824C273.314,108.4,287.126,111.934,292.142,126.123Z" transform="translate(-266.667 -107.534)" fill="#fff" opacity="0.2"/><path d="M196.142,107.534v6.824c-6.647.87-20.459,4.4-25.475,18.589v-6.824C175.684,111.934,189.5,108.4,196.142,107.534Z" transform="translate(-137.914 -107.534)" fill="#fff" opacity="0.2"/></g><g transform="translate(7.278 109.474)"><path d="M196.142,327.85v-6.983c-6.647.87-20.459,4.4-25.475,18.589V356.6A29.057,29.057,0,0,0,196.142,327.85Z" transform="translate(-137.914 -320.867)" fill="#fff"/><path d="M292.142,356.6v-17.14c-5.016-14.189-18.828-17.719-25.475-18.589v6.983A29.058,29.058,0,0,0,292.142,356.6Z" transform="translate(-266.667 -320.868)" fill="#fff"/></g><path d="M196,320.892c.043-.006.1-.018.144-.024v6.983A29.057,29.057,0,0,1,170.666,356.6v-8.492A29.01,29.01,0,0,0,196,320.892Z" transform="translate(-130.634 -211.394)" fill="#fff" opacity="0.1"/><path d="M292.142,348.1V356.6a29.058,29.058,0,0,1-25.475-28.746v-6.983c.043.006.1.018.144.024A29.01,29.01,0,0,0,292.142,348.1Z" transform="translate(-259.389 -211.393)" fill="#fff" opacity="0.1"/><path d="M152.971,7.278a3.637,3.637,0,0,1,3.639,3.639V29.4c5.8.713,17.3,3.254,25.475,12.037V3.639a3.639,3.639,0,1,1,7.278,0v37.8c8.177-8.784,19.676-11.324,25.475-12.037V10.918a3.639,3.639,0,1,1,7.279,0V116.456a36.317,36.317,0,0,1-32.753,36.025v18.564a3.639,3.639,0,1,1-7.279,0V152.481a36.316,36.316,0,0,1-32.753-36.025V10.918A3.637,3.637,0,0,1,152.971,7.278Z" transform="translate(-149.332)" fill="none"/></g></g></g></svg>