<svg xmlns="http://www.w3.org/2000/svg" width="209" height="251" viewBox="0 0 209 251"><g transform="translate(-355 -4049)"><g transform="translate(355 4049)" fill="none" stroke="#90e224" stroke-width="2"><rect width="190" height="231" rx="10" stroke="none"/><rect x="1" y="1" width="188" height="229" rx="9" fill="none"/></g><rect width="190" height="231" rx="40" transform="translate(374 4069)" fill="#90e224"/><g transform="translate(430.373 4158.483)"><path d="M286.667,37.054V81.118a34.577,34.577,0,0,1-12.2,10.912H258.633L266,50.7V37.054a5.6,5.6,0,0,1,5.6-5.6h9.461A5.6,5.6,0,0,1,286.667,37.054Z" transform="translate(-226.539 -31.452)" fill="#fff"/><path d="M59.407,174.581v41.333H35.5a34.557,34.557,0,0,1-15.553-17.04,5.6,5.6,0,0,1,5.163-3.423H38.741V180.184a5.6,5.6,0,0,1,5.6-5.6H59.407Z" transform="translate(-19.947 -155.335)" fill="#eee"/><path d="M334.089,37.051v34.31L313.422,50.694V37.051a5.6,5.6,0,0,1,5.6-5.6h9.462A5.6,5.6,0,0,1,334.089,37.051Z" transform="translate(-273.961 -31.449)" fill="#fff"/></g></g></svg>