<svg xmlns="http://www.w3.org/2000/svg" width="1358.377" height="1040.554" viewBox="0 0 1358.377 1040.554"><g transform="translate(-382.526 -2424.515)"><g transform="translate(278.35 2335.68)" opacity="0.1"><g transform="translate(104.176 88.835)"><path d="M174.685,1089.125,183.956,55.7l9.271,1033.423Z" transform="translate(495.247 -55.702)" fill="#fff"/><g transform="translate(671.237 146.15)"><path d="M174.95,142.392a161.2,161.2,0,0,0,13.14-11.317c3.7-3.616,8.554-7.32,12.9-12.229,4.439-4.733,9.2-9.818,13.992-14.9,9.965-9.789,17.579-21.576,24.369-29.542,6.467-8.26,10.817-13.728,10.817-13.728s-4.086,5.673-10.23,14.139c-6.437,8.26-13.639,20.43-23.193,30.689-4.585,5.262-9.171,10.582-13.492,15.52-4.174,5.144-8.906,9.142-12.552,12.963a164.171,164.171,0,0,1-12.816,11.993Z" transform="translate(-168.454 -60.674)" fill="#fff"/><path d="M174.908,265.829a82.755,82.755,0,0,0,7.76-6.143,85.659,85.659,0,0,0,8.23-7.79c3.057-3.263,6.878-6.526,10.259-10.935,3.469-4.262,7.29-8.877,11.288-13.757,3.909-5,7.408-10.729,11.376-16.4,3.763-5.82,8.231-11.494,11.493-18.049,3.528-6.378,7.114-12.875,10.729-19.371a164.048,164.048,0,0,0,9.877-19.842c3-6.673,5.879-13.257,8.7-19.636,2.763-6.438,5.82-12.464,7.936-18.519,2.117-6.026,4.115-11.758,5.968-17.049,7.349-21.106,12.287-35.215,12.287-35.215s-4.38,14.286-10.935,35.686c-1.617,5.379-3.41,11.2-5.292,17.343s-4.733,12.287-7.231,18.842c-2.587,6.526-5.262,13.257-8,20.106a157.527,157.527,0,0,1-9.2,20.371c-3.38,6.7-6.761,13.4-10.053,20.018-3.087,6.731-7.349,12.7-10.935,18.754-3.851,5.938-7.173,11.9-10.964,17.167-3.939,5.174-7.672,10.083-11.082,14.58-3.233,4.7-7.114,8.289-10.2,11.787a89.025,89.025,0,0,1-8.524,8.672,89.272,89.272,0,0,1-8.084,6.908Z" transform="translate(-169.646 8.78)" fill="#fff"/><path d="M174.886,255.813s10.7-10.553,26.073-27.1c7.82-8.172,16.55-18.019,26.015-28.513,9.436-10.494,19.048-22.105,28.9-33.54,9.377-11.787,18.931-23.457,27.484-34.686,8.289-11.464,16.02-22.134,22.664-31.305C318.158,81.53,326.212,68.8,326.212,68.8S318.6,81.883,307.223,101.46c-6.291,9.436-13.639,20.459-21.488,32.246-8.143,11.582-17.314,23.663-26.25,35.862-9.436,11.817-18.607,23.869-27.69,34.745-9.083,10.906-17.491,21.135-25.016,29.63-14.815,17.255-25.191,28.278-25.191,28.278Z" transform="translate(-170.271 170.121)" fill="#fff"/><path d="M174.729,774S290.1,585.749,415.828,404.323C478.586,313.609,544.02,224.6,597.9,161.725c13.492-15.7,26.221-29.777,37.773-41.976,11.67-12.14,22.281-22.223,31.306-30.277,9.288-7.7,16.49-13.933,22.017-17.314,5.35-3.586,8.2-5.526,8.2-5.526s-2.823,2-8.113,5.732c-5.439,3.468-12.494,9.818-21.606,17.7-8.818,8.2-19.166,18.519-30.541,30.865-11.318,12.4-23.693,26.72-36.8,42.652-52.44,63.876-115.876,154.06-176.635,245.949C301.833,593.275,190.632,783.52,190.632,783.52Z" transform="translate(-174.729 108.504)" fill="#fff"/><path d="M184.31,127.093s16.785.617,42.182-.97c12.669-.558,27.4-2.293,43.211-3.763,15.667-2.587,32.628-4.115,49.177-7.907,8.29-1.734,16.608-3.5,24.751-5.232,8.289-1.47,16.108-3.909,23.751-6.173,15.139-4.791,29.836-7.79,41.535-12.992,23.781-9.289,39.6-15.491,39.6-15.491s-15.638,6.731-39.1,16.873c-11.552,5.585-26.132,9.054-41.212,14.433-7.613,2.5-15.433,5.232-23.634,7.025-8.172,2-16.432,4.057-24.75,6.114-16.55,4.38-33.54,6.467-49.267,9.642-15.873,2.058-30.688,4.292-43.5,5.262-25.545,2.5-42.828,2.469-42.828,2.469Z" transform="translate(94.826 333.734)" fill="#fff"/><path d="M204.623,201a32.112,32.112,0,0,1-3.821-4.909,31.366,31.366,0,0,1-3.645-6.173c-1.117-2.5-2.91-5.085-3.763-8.348-1-3.175-2.057-6.643-3.145-10.288-1.088-3.674-1.146-7.731-1.793-11.787-.411-4.115-1.382-8.348-.882-12.669.206-4.321.441-8.7.647-13.11-.059-8.789,3.028-17.2,4.291-25.25,1.029-3.968,1.264-7.966,2.822-11.435,1.264-3.528,2.469-6.849,3.557-9.935,4.439-12.287,7.378-20.459,7.378-20.459s-2.645,8.289-6.643,20.665c-1.029,3.116-2.117,6.5-3.263,10.024-1.411,3.469-1.558,7.466-2.41,11.464-.97,8.025-3.792,16.4-3.439,25.1-.059,4.292-.118,8.613-.176,12.846-.382,4.262.735,8.348,1.234,12.316.794,3.939.911,7.878,2.087,11.347,1.205,3.439,2.352,6.731,3.381,9.73.882,3.087,2.7,5.409,3.792,7.731a26.684,26.684,0,0,0,3.468,5.5,26.881,26.881,0,0,0,3.645,4.439Z" transform="translate(186.038 108.504)" fill="#fff"/><path d="M201.3,258.165a304.257,304.257,0,0,1-8.29-29.484c-4.144-17.813-8.2-41.976-8.759-66.374a235.432,235.432,0,0,1,1.91-35.656c1.058-5.585,1.528-11.112,2.969-16.138,1.411-5.056,2.381-9.877,3.938-14.169,3.116-8.554,5.909-15.579,8.7-20.106,2.5-4.674,3.88-7.349,3.88-7.349s-1.294,2.734-3.528,7.525c-2.557,4.615-5,11.758-7.672,20.371-1.323,4.292-2.058,9.142-3.233,14.169-1.176,5-1.382,10.494-2.117,16.049a232.394,232.394,0,0,0-.235,35.1,337.558,337.558,0,0,0,11.729,64.64,279.327,279.327,0,0,0,9.436,28.161Z" transform="translate(94.502 172.62)" fill="#fff"/><path d="M200.3,179.215c0-.029-2.557-6.29-5.526-15.844a301.431,301.431,0,0,1-8.731-35.48c-.97-6.585-2.41-13.052-2.733-19.254-.471-6.2-1.411-11.934-1.264-16.9-.059-9.877-.118-16.461-.118-16.461s.617,6.526,1.528,16.343c.323,4.909,1.764,10.523,2.734,16.579.882,6.055,2.881,12.317,4.409,18.637A294.1,294.1,0,0,0,202.152,160.7c3.674,9.054,6.643,14.727,6.643,14.727Z" transform="translate(29.687 353.895)" fill="#fff"/><path d="M174.8,402.99s8.995-7.613,26.073-20.047c8.583-6.114,18.519-14.286,30.689-22.193,12.11-8.172,25.691-17.4,40.536-27.426,14.786-10.141,31.747-19.607,49.148-30.454,17.667-10.435,35.686-22.428,55.7-32.511,19.724-10.523,40.065-21.429,60.76-32.511,20.4-11.641,42.534-20.665,64.081-30.777,21.664-9.936,43.3-19.841,64.64-29.6,21.488-9.318,43.446-16.638,64.229-24.722,20.9-7.878,41.065-15.462,60.2-22.634,18.9-7.848,37.831-12.258,54.88-17.461,68.55-19.812,114.171-33.04,114.171-33.04s-45.3,14.316-113.26,35.8c-16.9,5.585-35.627,10.465-54.351,18.754-18.9,7.643-38.86,15.668-59.466,24.045-20.518,8.554-42.212,16.344-63.376,26.22-20.958,10.2-42.329,20.577-63.611,30.982C484.622,226,462.87,235.5,442.852,247.637c-20.283,11.464-40.272,22.781-59.584,33.716-19.607,10.465-37.244,22.781-54.469,33.628-16.99,11.141-33.57,20.959-47.973,31.335-14.433,10.289-27.661,19.724-39.39,28.072C229.5,382.56,220.125,390.7,211.894,396.9c-16.255,12.4-25.25,20.371-25.25,20.371Z" transform="translate(-172.77 477.129)" fill="#fff"/><path d="M191.322,176.384a345.158,345.158,0,0,1,11.61-51.206c2-6.232,4.5-12.346,6.526-18.107,2.734-5.526,5.232-10.7,7.378-15.109,5.526-8.113,9.2-13.551,9.2-13.551s-3.41,5.555-8.554,13.874c-1.94,4.5-4.2,9.73-6.643,15.315-1.764,5.849-3.968,11.964-5.673,18.225a341.776,341.776,0,0,0-9.23,51.089Z" transform="translate(296.431 442.942)" fill="#fff"/><path d="M185.673,85.4s3.674,1.058,10.082,2.969c6.438,1.94,15.579,4.556,26.6,7.378,11.082,2.91,23.957,6.32,37.773,9.965,13.845,3.469,28.807,6.437,43.71,9.789,7.407,1.616,14.874,3.233,22.223,4.85,7.349,1.47,14.492,3.557,21.605,4.321,14.139,2.028,27.338,3.939,38.685,5.556,22.693,3.292,37.772,5.468,37.772,5.468s-15.138-1.587-37.949-4c-11.376-1.205-24.692-2.616-39.007-4.115-7.173-.529-14.344-2.322-21.781-3.527-7.408-1.323-14.963-2.675-22.487-4-15.021-2.822-30.159-5.2-44.21-8.172-14.022-3.145-27.073-6.055-38.3-8.583-11.229-2.41-20.547-4.674-26.984-6.379-6.5-1.646-10.2-2.557-10.2-2.557Z" transform="translate(65.919 641.423)" fill="#fff"/></g><g transform="translate(0 146.15)"><path d="M244.773,145.979a164.165,164.165,0,0,1-12.816-11.993c-3.616-3.821-8.407-7.819-12.552-12.963-4.321-4.938-8.907-10.259-13.492-15.52-9.554-10.259-16.756-22.428-23.193-30.689-6.144-8.466-10.23-14.139-10.23-14.139s4.351,5.468,10.788,13.728c6.819,7.966,14.433,19.754,24.4,29.542,4.762,5.085,9.553,10.171,14.021,14.9,4.292,4.909,9.142,8.613,12.846,12.229a164.048,164.048,0,0,0,13.169,11.317Z" transform="translate(432.96 -60.674)" fill="#fff"/><path d="M281.645,273.354a89.311,89.311,0,0,1-8.084-6.908,92.5,92.5,0,0,1-8.524-8.672c-3.086-3.5-6.967-7.084-10.2-11.787-3.41-4.5-7.143-9.407-11.082-14.58-3.792-5.262-7.114-11.229-10.964-17.167-3.587-6.055-7.878-12.023-10.935-18.754-3.292-6.614-6.7-13.316-10.053-20.018a161.645,161.645,0,0,1-9.2-20.371c-2.733-6.849-5.408-13.581-7.995-20.106-2.529-6.555-5.35-12.7-7.232-18.842s-3.675-11.964-5.321-17.343c-6.526-21.4-10.906-35.686-10.906-35.686s4.938,14.11,12.258,35.215c1.882,5.291,3.88,11.023,5.967,17.049,2.146,6.055,5.2,12.081,7.937,18.519,2.851,6.379,5.761,12.963,8.73,19.636a160.015,160.015,0,0,0,9.906,19.842c3.586,6.5,7.173,12.993,10.7,19.371,3.262,6.555,7.73,12.229,11.493,18.049,3.939,5.673,7.466,11.405,11.376,16.4,4,4.879,7.819,9.494,11.288,13.757,3.351,4.409,7.2,7.672,10.259,10.935a82.231,82.231,0,0,0,8.259,7.79,80.648,80.648,0,0,0,7.731,6.143Z" transform="translate(394.854 8.78)" fill="#fff"/><path d="M314.59,262.222S304.184,251.2,289.4,233.943c-7.525-8.5-15.933-18.725-24.986-29.63-9.112-10.876-18.283-22.928-27.719-34.745-8.936-12.2-18.107-24.281-26.25-35.862-7.878-11.787-15.2-22.811-21.488-32.246C177.579,81.883,169.966,68.8,169.966,68.8s8.084,12.728,20.194,31.864c6.643,9.171,14.374,19.841,22.664,31.305,8.583,11.229,18.137,22.9,27.484,34.686,9.848,11.435,19.43,23.046,28.9,33.54s18.2,20.341,26.015,28.513c15.374,16.549,26.073,27.1,26.073,27.1Z" transform="translate(361.263 170.121)" fill="#fff"/><path d="M664.033,783.52S552.862,593.275,431.195,409.526C370.435,317.637,307,227.452,254.589,163.577c-13.169-15.932-25.515-30.247-36.8-42.652-11.405-12.346-21.753-22.663-30.571-30.865-9.113-7.878-16.167-14.227-21.634-17.7-5.262-3.733-8.084-5.732-8.084-5.732s2.881,1.94,8.2,5.526c5.556,3.38,12.728,9.612,22.017,17.314,9.025,8.054,19.607,18.137,31.306,30.277,11.552,12.2,24.28,26.279,37.773,41.976,53.881,62.876,119.315,151.885,182.073,242.6C564.59,585.749,679.936,774,679.936,774Z" transform="translate(7.204 108.504)" fill="#fff"/><path d="M421.079,136.382s-17.314.029-42.858-2.44c-12.787-1-27.6-3.234-43.475-5.291-15.727-3.175-32.746-5.262-49.266-9.642-8.29-2.058-16.579-4.115-24.751-6.114-8.231-1.793-16.05-4.527-23.634-7.025-15.08-5.35-29.66-8.848-41.241-14.433C172.425,81.3,156.787,74.564,156.787,74.564s15.844,6.2,39.6,15.491c11.67,5.2,26.367,8.2,41.535,12.992,7.643,2.264,15.492,4.7,23.722,6.173,8.172,1.734,16.49,3.5,24.78,5.232,16.549,3.792,33.51,5.32,49.178,7.907,15.815,1.5,30.541,3.233,43.24,3.763,25.367,1.617,42.152,1,42.152,1Z" transform="translate(-12.957 333.734)" fill="#fff"/><path d="M161.867,197.793a26.017,26.017,0,0,0,3.674-4.439,25.52,25.52,0,0,0,3.439-5.5c1.117-2.322,2.94-4.644,3.822-7.731,1.058-3,2.146-6.29,3.351-9.73,1.176-3.469,1.323-7.408,2.087-11.347.529-3.968,1.617-8.054,1.264-12.316-.059-4.233-.147-8.554-.177-12.846.353-8.7-2.469-17.078-3.439-25.1-.882-4-1-8-2.41-11.464-1.146-3.527-2.263-6.908-3.233-10.024-4-12.375-6.673-20.665-6.673-20.665s2.91,8.172,7.378,20.459c1.088,3.086,2.293,6.408,3.557,9.935,1.528,3.468,1.793,7.466,2.822,11.435,1.234,8.054,4.35,16.461,4.291,25.25.235,4.409.411,8.789.617,13.11.5,4.321-.441,8.554-.852,12.669-.647,4.057-.677,8.113-1.793,11.787-1.088,3.645-2.175,7.114-3.145,10.288-.853,3.263-2.7,5.849-3.763,8.348a28.743,28.743,0,0,1-3.645,6.173A32.113,32.113,0,0,1,165.218,201Z" transform="translate(131.291 108.504)" fill="#fff"/><path d="M164.911,261.134s4.38-11.317,9.318-29.248a364,364,0,0,0,11.758-66.727,248.652,248.652,0,0,0,0-36.244A196.248,196.248,0,0,0,180.726,97.7c-1.441-4.439-2.763-8.5-3.91-12.081-1.087-3.645-2.851-6.467-3.88-8.966-2.351-4.938-3.645-7.76-3.645-7.76s1.44,2.763,3.969,7.584c1.146,2.44,3.086,5.232,4.35,8.818q2.028,5.379,4.5,11.993a191.918,191.918,0,0,1,6.79,31.306,250.764,250.764,0,0,1,1.734,36.773,367.937,367.937,0,0,1-8.789,68.4c-4.115,18.343-8.2,30.483-8.2,30.483Z" transform="translate(217.725 172.62)" fill="#fff"/><path d="M167.138,174.365s3-5.526,6.79-14.462a272.32,272.32,0,0,0,11.846-33.481c1.558-6.261,3.586-12.493,4.526-18.519.97-5.967,2.469-11.523,2.734-16.4.941-9.73,1.529-16.226,1.529-16.226s-.029,6.526-.089,16.343c.118,4.938-.852,10.612-1.323,16.755-.353,6.2-1.852,12.61-2.852,19.107a274.3,274.3,0,0,1-9.054,35.186c-3.028,9.436-5.732,15.667-5.732,15.667Z" transform="translate(280.961 353.895)" fill="#fff"/><path d="M825.16,417.275s-8.966-7.966-25.251-20.371c-8.2-6.2-17.608-14.345-29.512-22.517-11.729-8.348-24.957-17.784-39.39-28.072-14.433-10.376-30.982-20.194-47.973-31.335-17.226-10.847-34.863-23.163-54.469-33.628-19.312-10.935-39.3-22.252-59.584-33.716C548.963,235.5,527.211,226,505.988,215.42c-21.282-10.406-42.623-20.782-63.641-30.982-21.135-9.877-42.8-17.666-63.317-26.22-20.665-8.378-40.595-16.4-59.5-24.045-18.724-8.289-37.449-13.169-54.322-18.754-68.02-21.488-113.318-35.8-113.318-35.8s45.68,13.228,114.2,33.04c17.049,5.2,35.95,9.612,54.851,17.461,19.165,7.172,39.36,14.756,60.23,22.634,20.811,8.084,42.711,15.4,64.2,24.722,21.311,9.759,43.005,19.665,64.669,29.6,21.546,10.112,43.681,19.136,64.081,30.777,20.694,11.082,41.036,21.988,60.76,32.511,20.018,10.082,38.037,22.076,55.7,32.511,17.372,10.847,34.363,20.312,49.178,30.454,14.785,10.024,28.4,19.254,40.477,27.426,12.2,7.907,22.134,16.079,30.688,22.193,17.078,12.434,26.073,20.047,26.073,20.047Z" transform="translate(-151.894 477.129)" fill="#fff"/><path d="M185.246,177.177a339.018,339.018,0,0,0-7.966-51.03c-1.587-6.261-3.616-12.4-5.291-18.254-2.293-5.673-4.41-10.906-6.262-15.432-4.938-8.407-8.23-14.051-8.23-14.051s3.821,5.379,9.495,13.374c2.263,4.409,4.909,9.524,7.731,14.992,2.205,5.761,4.85,11.846,7,18.078,8.583,24.9,12.786,51.265,12.786,51.265Z" transform="translate(7.204 442.942)" fill="#fff"/><path d="M399.551,94.365s-3.7.911-10.2,2.557c-6.467,1.7-15.727,3.968-26.985,6.379-11.229,2.528-24.28,5.438-38.331,8.583-14.022,2.969-29.16,5.35-44.181,8.172-7.525,1.323-15.08,2.675-22.458,4-7.467,1.205-14.668,3-21.841,3.527-14.286,1.5-27.6,2.91-38.978,4.115-22.811,2.41-37.979,4-37.979,4s15.11-2.175,37.8-5.468c11.318-1.617,24.545-3.527,38.684-5.556,7.113-.764,14.227-2.851,21.605-4.321,7.319-1.617,14.785-3.234,22.223-4.85,14.9-3.351,29.865-6.32,43.739-9.789,13.757-3.645,26.662-7.055,37.714-9.965,11.053-2.822,20.224-5.438,26.632-7.378,6.409-1.911,10.083-2.969,10.083-2.969Z" transform="translate(38.495 641.423)" fill="#fff"/></g></g></g></g></svg>