<svg xmlns="http://www.w3.org/2000/svg" width="35.963" height="29.914" viewBox="0 0 35.963 29.914"><path d="M35.391,37.971a14.24,14.24,0,0,1-2.48.836,7.731,7.731,0,0,0,2.041-3.25h0a.405.405,0,0,0-.593-.472h0a14.308,14.308,0,0,1-3.791,1.566.966.966,0,0,1-.237.029,1,1,0,0,1-.664-.253,7.753,7.753,0,0,0-5.13-1.936,8.29,8.29,0,0,0-2.456.379,7.511,7.511,0,0,0-5.062,5.412,8.271,8.271,0,0,0-.184,2.855.278.278,0,0,1-.07.218.287.287,0,0,1-.214.1h-.028A20.33,20.33,0,0,1,2.551,35.985h0a.405.405,0,0,0-.664.052h0a7.762,7.762,0,0,0,1.261,9.424,6.948,6.948,0,0,1-1.768-.685h0a.405.405,0,0,0-.6.349h0a7.763,7.763,0,0,0,4.528,7.152l-.166,0a6.977,6.977,0,0,1-1.306-.125h0a.405.405,0,0,0-.462.522h0a7.771,7.771,0,0,0,6.138,5.285A14.307,14.307,0,0,1,1.5,60.4H.6a.594.594,0,0,0-.58.448.614.614,0,0,0,.294.679,21.28,21.28,0,0,0,10.693,2.883,21.572,21.572,0,0,0,9.138-1.939,20.179,20.179,0,0,0,6.686-5.01A21.966,21.966,0,0,0,30.924,50.6a21.66,21.66,0,0,0,1.392-7.5v-.118a1.319,1.319,0,0,1,.494-1.027,15.325,15.325,0,0,0,3.083-3.384h0a.405.405,0,0,0-.5-.6Z" transform="translate(0 -34.491)" fill="#fff"/></svg>