<svg xmlns="http://www.w3.org/2000/svg" width="107.252" height="107.252" viewBox="0 0 107.252 107.252"><g transform="translate(-213.874 -1928.874)"><g transform="matrix(0.996, 0.087, -0.087, 0.996, 173.675, -1574.714)"><circle cx="49.5" cy="49.5" r="49.5" transform="translate(354 3486)" fill="#64b900"/></g><g transform="translate(96 1910)"><path d="M194.862,67.375c-6.914,4.321-4.085-6.364-4.085-6.364-4.558,3.457-6.208-.4-6.208-.4-9.139,9.8-7.384,3.929-7.384,3.929-1.808.785,0-4.557,0-4.557-1.258,0-.786-3.615-.786-3.615-1.414,4.243-3.536-1.1-3.536-1.1-.754,0-1.257-2.593-1.257-2.593s-.5,2.6-1.257,2.593c0,0-2.122,5.342-3.536,1.1,0,0,.472,3.615-.786,3.615,0,0,1.808,5.342,0,4.557,0,0,1.755,5.867-7.385-3.929,0,0-1.649,3.853-6.207.4,0,0,2.828,10.686-4.085,6.364,0,0,6.363,6.286,5.5,6.914a20.9,20.9,0,0,1-4.556,1.336s3.851,3.143,2.829,3.929c0,0,3.535,1.728,1.414,3.221,0,0,10.842,2.986,6.914,4.087,0,0,8.721.628,11.157-.865,2.436,1.493,11.157.865,11.157.865-3.928-1.1,6.914-4.087,6.914-4.087-2.121-1.493,1.414-3.221,1.414-3.221-1.022-.785,2.829-3.929,2.829-3.929a20.9,20.9,0,0,1-4.556-1.336C188.5,73.66,194.862,67.375,194.862,67.375Z" transform="translate(0)" fill="#fff"/><g transform="translate(151.443 55.317)"><path d="M174.685,86.381,174.96,55.7l.275,30.679Z" transform="translate(-154.796 -55.702)" fill="#fff"/><g transform="translate(19.927 4.339)"><path d="M174.95,63.1a4.787,4.787,0,0,0,.39-.336c.11-.107.254-.217.383-.363l.415-.442a11.215,11.215,0,0,0,.723-.877c.192-.245.321-.408.321-.408l-.3.42a11.382,11.382,0,0,1-.689.911l-.4.461c-.124.153-.264.271-.373.385a4.874,4.874,0,0,1-.38.356Z" transform="translate(-174.757 -60.674)" fill="#fff"/><path d="M174.908,69.138a2.458,2.458,0,0,0,.23-.182,2.542,2.542,0,0,0,.244-.231,4.048,4.048,0,0,0,.3-.325c.1-.127.216-.264.335-.408s.22-.319.338-.487a5.553,5.553,0,0,0,.341-.536l.319-.575a4.869,4.869,0,0,0,.293-.589c.089-.2.175-.394.258-.583s.173-.37.236-.55l.177-.506c.218-.627.365-1.045.365-1.045l-.325,1.059c-.048.16-.1.332-.157.515s-.14.365-.215.559l-.237.6a4.675,4.675,0,0,1-.273.6c-.1.2-.2.4-.3.594a6.044,6.044,0,0,1-.325.557c-.114.176-.213.353-.325.51l-.329.433a3.548,3.548,0,0,1-.3.35,3.9,3.9,0,0,1-.493.463Z" transform="translate(-174.752 -60.985)" fill="#fff"/><path d="M174.886,74.354s.318-.313.774-.8c.232-.243.491-.535.772-.846s.565-.656.858-1,.562-.7.816-1.03l.673-.929.6-.946-.564.97-.638.957c-.242.344-.514.7-.779,1.065s-.552.709-.822,1.031-.519.627-.743.88c-.44.512-.748.839-.748.839Z" transform="translate(-174.749 -61.709)" fill="#fff"/><path d="M174.729,87.631s3.425-5.588,7.157-10.974c1.863-2.693,3.806-5.335,5.405-7.2.4-.466.778-.884,1.121-1.246s.661-.66.929-.9A7.093,7.093,0,0,1,190,66.8l.243-.164L190,66.8a6.971,6.971,0,0,0-.641.525c-.262.243-.569.55-.907.916s-.7.793-1.093,1.266c-1.557,1.9-3.44,4.574-5.244,7.3-3.612,5.455-6.913,11.1-6.913,11.1Z" transform="translate(-174.729 -61.433)" fill="#fff"/><path d="M184.225,76.123s.5.018,1.252-.029c.376-.017.813-.068,1.283-.112.465-.077.969-.122,1.46-.235l.735-.155a6.407,6.407,0,0,0,.705-.183c.449-.142.886-.231,1.233-.386l1.175-.46-1.161.5c-.343.166-.776.269-1.223.428a7.134,7.134,0,0,1-.7.209l-.735.182c-.491.13-1,.192-1.463.286-.471.061-.911.127-1.292.156-.758.074-1.271.073-1.271.073Z" transform="translate(-175.938 -62.443)" fill="#fff"/><path d="M187.945,70.621a.954.954,0,0,1-.113-.146.931.931,0,0,1-.108-.183,1.5,1.5,0,0,1-.112-.248c-.03-.094-.061-.2-.093-.305a2.858,2.858,0,0,1-.053-.35,1.734,1.734,0,0,1-.026-.376c.006-.128.013-.258.019-.389a4.556,4.556,0,0,1,.127-.75,2.168,2.168,0,0,1,.084-.339c.038-.1.073-.2.106-.295l.219-.607s-.079.246-.2.613c-.031.092-.063.193-.1.3a2.072,2.072,0,0,0-.072.34,4.537,4.537,0,0,0-.1.745c0,.127,0,.256-.005.381a1.678,1.678,0,0,0,.037.366,2.863,2.863,0,0,0,.062.337c.036.1.07.2.1.289a1.407,1.407,0,0,0,.113.229,1.458,1.458,0,0,0,.211.295Z" transform="translate(-176.347 -61.433)" fill="#fff"/><path d="M184.718,74.509a9.021,9.021,0,0,1-.246-.875,10.02,10.02,0,0,1-.26-1.97,6.988,6.988,0,0,1,.057-1.059c.031-.166.045-.33.088-.479s.071-.293.117-.421a3.592,3.592,0,0,1,.258-.6c.074-.139.115-.218.115-.218l-.1.223a3.555,3.555,0,0,0-.228.6c-.039.127-.061.271-.1.421s-.041.312-.063.476a6.9,6.9,0,0,0-.007,1.042,10.022,10.022,0,0,0,.348,1.919,8.293,8.293,0,0,0,.28.836Z" transform="translate(-175.936 -61.72)" fill="#fff"/><path d="M182.473,78.36s-.076-.187-.164-.47a8.945,8.945,0,0,1-.259-1.053c-.029-.2-.072-.387-.081-.572s-.042-.354-.038-.5c0-.293,0-.489,0-.489s.018.194.045.485c.01.146.052.312.081.492s.086.366.131.553a8.728,8.728,0,0,0,.343,1.005c.109.269.2.437.2.437Z" transform="translate(-175.646 -62.533)" fill="#fff"/><path d="M174.8,89.214s.267-.226.774-.6c.255-.182.55-.424.911-.659l1.2-.814c.439-.3.942-.582,1.459-.9s1.059-.666,1.654-.965l1.8-.965c.606-.346,1.263-.613,1.9-.914l1.919-.879c.638-.277,1.29-.494,1.907-.734l1.787-.672a16.739,16.739,0,0,1,1.629-.518l3.389-.981-3.362,1.063a16.662,16.662,0,0,0-1.614.557c-.561.227-1.154.465-1.765.714s-1.253.485-1.881.778-1.257.611-1.888.92-1.276.6-1.87.956l-1.769,1c-.582.311-1.106.676-1.617,1s-1,.622-1.424.93l-1.169.833c-.354.243-.633.484-.877.668-.483.368-.75.6-.75.6Z" transform="translate(-174.738 -63.086)" fill="#fff"/><path d="M191.322,81.319a10.246,10.246,0,0,1,.345-1.52c.059-.185.134-.367.194-.538.081-.164.155-.318.219-.449l.273-.4-.254.412c-.058.134-.125.289-.2.455-.052.174-.118.355-.168.541a10.146,10.146,0,0,0-.274,1.517Z" transform="translate(-176.842 -62.933)" fill="#fff"/><path d="M183.277,85.4l.3.088c.191.058.463.135.79.219l1.121.3c.411.1.855.191,1.3.291l.66.144c.218.044.43.106.641.128l1.148.165,1.121.162-1.127-.119-1.158-.122c-.213-.016-.426-.069-.647-.1l-.668-.119c-.446-.084-.9-.154-1.312-.243l-1.137-.255c-.333-.072-.61-.139-.8-.189l-.3-.076Z" transform="translate(-175.808 -63.823)" fill="#fff"/></g><g transform="translate(0 4.339)"><path d="M174.637,63.206a4.876,4.876,0,0,1-.38-.356c-.107-.113-.25-.232-.373-.385l-.4-.461a11.382,11.382,0,0,1-.689-.911l-.3-.42s.129.162.32.408.428.586.724.877l.416.442c.127.146.271.256.381.363a4.874,4.874,0,0,0,.391.336Z" transform="translate(-154.517 -60.674)" fill="#fff"/><path d="M174.429,69.361a2.652,2.652,0,0,1-.24-.205,2.749,2.749,0,0,1-.253-.257,3.546,3.546,0,0,1-.3-.35l-.329-.433c-.113-.156-.211-.333-.326-.51a5.85,5.85,0,0,1-.325-.557c-.1-.2-.2-.4-.3-.594a4.8,4.8,0,0,1-.273-.6l-.237-.6c-.075-.195-.159-.377-.215-.559l-.158-.515c-.194-.635-.324-1.059-.324-1.059s.147.419.364,1.045c.056.157.115.327.177.506s.154.359.236.55l.259.583a4.751,4.751,0,0,0,.294.589l.318.575a5.55,5.55,0,0,0,.341.536c.117.168.222.339.338.487s.232.282.335.408a3.89,3.89,0,0,0,.3.325,2.439,2.439,0,0,0,.245.231,2.393,2.393,0,0,0,.229.182Z" transform="translate(-154.346 -60.985)" fill="#fff"/><path d="M174.259,74.544s-.309-.327-.748-.839c-.223-.252-.473-.556-.742-.88s-.543-.681-.823-1.031-.538-.721-.779-1.065-.451-.677-.638-.957l-.564-.97.6.946.673.929c.255.333.538.68.816,1.03s.577.684.858,1,.54.6.772.846c.456.491.774.8.774.8Z" transform="translate(-154.195 -61.709)" fill="#fff"/><path d="M172.535,87.914s-3.3-5.648-6.912-11.1c-1.8-2.728-3.687-5.405-5.243-7.3-.391-.473-.757-.9-1.093-1.266s-.646-.673-.908-.916a6.842,6.842,0,0,0-.642-.525l-.24-.17.243.164a6.977,6.977,0,0,1,.654.514c.268.239.582.538.929.9s.721.78,1.121,1.246c1.6,1.867,3.542,4.509,5.405,7.2,3.732,5.386,7.157,10.974,7.157,10.974Z" transform="translate(-152.608 -61.433)" fill="#fff"/><path d="M164.633,76.4s-.514,0-1.272-.072c-.38-.03-.819-.1-1.291-.157-.467-.094-.972-.156-1.463-.286l-.735-.182a6.993,6.993,0,0,1-.7-.209c-.448-.159-.881-.263-1.224-.428l-1.16-.5,1.175.46c.346.154.783.243,1.233.386a6.5,6.5,0,0,0,.7.183l.736.155c.491.113.995.158,1.46.235.469.045.907.1,1.284.112.753.048,1.251.03,1.251.03Z" transform="translate(-152.517 -62.443)" fill="#fff"/><path d="M161.867,70.526a.772.772,0,0,0,.109-.132.758.758,0,0,0,.1-.163,1.339,1.339,0,0,0,.113-.229c.031-.089.064-.187.1-.289a2.689,2.689,0,0,0,.062-.337,1.677,1.677,0,0,0,.038-.366c0-.126,0-.254-.005-.381a4.535,4.535,0,0,0-.1-.745,2.168,2.168,0,0,0-.072-.34c-.034-.1-.067-.205-.1-.3l-.2-.613s.086.243.219.607c.032.092.068.19.106.295a2.274,2.274,0,0,1,.084.339,4.652,4.652,0,0,1,.127.75c.007.131.012.261.018.389a1.735,1.735,0,0,1-.025.376,2.7,2.7,0,0,1-.053.35c-.032.108-.065.211-.093.305a1.652,1.652,0,0,1-.112.248.854.854,0,0,1-.108.183.954.954,0,0,1-.113.146Z" transform="translate(-153.164 -61.433)" fill="#fff"/><path d="M164.911,74.6s.13-.336.277-.868a10.806,10.806,0,0,0,.349-1.981,7.381,7.381,0,0,0,0-1.076,5.822,5.822,0,0,0-.156-.927c-.043-.132-.082-.252-.116-.359a2.343,2.343,0,0,0-.115-.266c-.07-.147-.108-.23-.108-.23l.118.225a2.371,2.371,0,0,1,.129.262l.134.356a5.7,5.7,0,0,1,.2.929,7.446,7.446,0,0,1,.051,1.092,10.922,10.922,0,0,1-.261,2.031c-.122.545-.243.9-.243.9Z" transform="translate(-153.552 -61.72)" fill="#fff"/><path d="M167.138,78.216s.089-.164.2-.429a8.084,8.084,0,0,0,.352-.994c.046-.186.106-.371.134-.55s.073-.342.081-.487c.028-.289.045-.482.045-.482s0,.194,0,.485c0,.147-.025.315-.039.5s-.055.374-.085.567a8.143,8.143,0,0,1-.269,1.045c-.09.28-.17.465-.17.465Z" transform="translate(-153.835 -62.533)" fill="#fff"/><path d="M171.881,89.638s-.266-.236-.75-.6c-.243-.184-.523-.426-.876-.668l-1.169-.833c-.428-.308-.92-.6-1.424-.93s-1.035-.688-1.617-1l-1.769-1c-.594-.36-1.24-.642-1.87-.956s-1.265-.617-1.889-.92-1.271-.524-1.88-.778l-1.766-.714a16.736,16.736,0,0,0-1.613-.557l-3.364-1.063,3.39.981a16.728,16.728,0,0,1,1.628.518c.569.213,1.168.438,1.788.672s1.268.457,1.906.734l1.92.879c.64.3,1.3.568,1.9.914l1.8.965c.594.3,1.129.655,1.654.965s1.02.6,1.46.9l1.2.814c.362.235.657.477.911.659.507.369.774.6.774.6Z" transform="translate(-151.894 -63.086)" fill="#fff"/><path d="M158.321,81.342a10.062,10.062,0,0,0-.236-1.515c-.047-.186-.107-.368-.157-.542-.068-.168-.131-.324-.186-.458l-.244-.417.282.4.229.445c.065.171.144.352.208.537a10.349,10.349,0,0,1,.38,1.522Z" transform="translate(-152.608 -62.933)" fill="#fff"/><path d="M165.752,85.666l-.3.076c-.192.051-.467.118-.8.189l-1.138.255c-.416.088-.866.159-1.312.243l-.667.119c-.222.036-.435.089-.648.1l-1.157.122-1.127.119,1.122-.162,1.148-.165c.211-.023.422-.085.641-.128l.66-.144c.442-.1.887-.188,1.3-.291l1.12-.3c.328-.084.6-.161.791-.219l.3-.088Z" transform="translate(-152.748 -63.823)" fill="#fff"/></g></g><path d="M175.557,95.986s-.47-2.269-.685-4.568c-.051-.574-.1-1.149-.106-1.69a11.956,11.956,0,0,1,.031-1.478,4.478,4.478,0,0,1,.071-.586,3.063,3.063,0,0,1,.09-.445c.072-.24.114-.377.114-.377l-.067.387a2.941,2.941,0,0,0-.036.445,4.275,4.275,0,0,0,0,.579,12.321,12.321,0,0,0,.143,1.444c.076.525.186,1.083.3,1.637.24,1.109.543,2.2.784,3.019s.421,1.347.421,1.347Z" transform="translate(-3.363 -4.35)" fill="#fff"/></g></g></svg>